<svg id="Layer_1" height="512" viewBox="0 0 520 520" width="512" xmlns="http://www.w3.org/2000/svg" data-name="Layer 1"><path d="m42.7 337.612v147.455a7.761 7.761 0 0 0 7.76 7.761h46.522a23.3 23.3 0 0 0 22.959-19.71l74.1 34.166a100.284 100.284 0 0 0 108.26-17.317l98.742-89.424c16.562-14.019 4.219-42.527-16.875-40.714v-84.3a23.307 23.307 0 0 0 -23.282-23.282c-28.049.042-88.887-.03-116.411 0h-69.843a23.308 23.308 0 0 0 -23.283 23.282v70.1c-.194-.472-31.064-.18-32.482-.255a23.288 23.288 0 0 0 -21.885-15.525h-46.523a7.76 7.76 0 0 0 -7.759 7.763zm240.583-69.847v31.864l-11.144-7.615c-6.461-4.661-13.7 4.148-19.9 7.615v-31.864zm-108.65 0h62.086v46.565c.284 2.282 1.038 4.583 2.985 5.967a7.944 7.944 0 0 0 9.152.441l18.906-12.918 18.9 12.918a7.781 7.781 0 0 0 10.062-1.214c1.372-1.333 1.779-3.373 2.076-5.194v-46.565h62.09a7.772 7.772 0 0 1 7.761 7.761v89.8l-114.2 55.7c13.788-22.017-3.761-53.107-29.827-52.37h-51.978c-1.419-4.107-3.018-10.461-5.775-13.827v-79.3a7.771 7.771 0 0 1 7.761-7.764zm-19.133 98.45c2.908 6.761 3.159 18.027 11.539 17.962h57.6a19.4 19.4 0 0 1 0 38.8h-34.486a7.761 7.761 0 1 0 0 15.521h62.086a7.793 7.793 0 0 0 3.4-.784c1.59-.772 127.027-61.958 126.2-61.552a7.428 7.428 0 0 1 9.951 2.6 7.611 7.611 0 0 1 -1.194 10.3l-98.719 89.4a84.725 84.725 0 0 1 -91.416 14.692l-80.162-36.96v-95.294h27.841a7.731 7.731 0 0 1 7.36 5.315zm-97.28-20.842h38.762a7.81 7.81 0 0 1 7.8 7.8v116.327a7.813 7.813 0 0 1 -7.8 7.8h-38.762z"/><path d="m298.8 368.655h23.282c10.142-.043 10.154-15.477 0-15.521h-23.282c-10.138.044-10.15 15.477 0 15.521z"/><path d="m477.3 174.636v-116.411a7.761 7.761 0 0 0 -7.76-7.761c-5.487.47-50.117-1.3-54.232 1.4l-67.167-37.7a77.843 77.843 0 0 0 -92.453 11.636l-35.754 34.638-57.474-35.56-26.428-16.352a7.8 7.8 0 0 0 -10.731 2.6c-9.166 15.21-28.853 47.908-38.14 63.32l-16.186 26.868a7.763 7.763 0 0 0 2.5 10.569l159.986 101.052c39.686 24.3 28.117 26.508 53.842-11.961 0 0 .008-.006.011-.011s14.641-22.689 14.642-22.695l14.931 9.053a53.663 53.663 0 0 0 56.813-.521l28.254-17.847a23.256 23.256 0 0 0 21.022 13.447h46.565a7.761 7.761 0 0 0 7.759-7.764zm-342.757-148.777 12.035 7.446a22.476 22.476 0 0 1 -19.452 4.867zm-38.958 64.679a23.251 23.251 0 0 1 4.708 19.921l-12.1-7.644zm165.942 121.762-12.108-7.647a22.493 22.493 0 0 1 19.993-4.571zm16.555-25.654c-14.339-6.051-31.922-1.981-42.282 9.4l-121.927-77.009a39.1 39.1 0 0 0 -9.926-42.38l14.924-24.778c14.273 5.484 31.338 1.158 41.4-10.1l83.573 51.71c-18.384 10.079-18.471 39.19-.138 49.459l44.973 27.27zm87.325-12.968a38.221 38.221 0 0 1 -40.467.376l-73.182-44.375a13.22 13.22 0 0 1 -6.071-8.484c-2.853-10.93 10.035-20.707 19.6-14.381l48.613 30.023c3.334 2.328 8.181 5.142 12.106 2.523 5.033-2.637 4.979-10.275.161-13.191l-92.62-57.308 32.941-31.914a62.26 62.26 0 0 1 74-9.284l62.19 34.9a22.968 22.968 0 0 0 -2.98 11.16v78.3zm96.373-6.8h-38.8a7.771 7.771 0 0 1 -7.761-7.76v-85.391a7.749 7.749 0 0 1 7.742-7.742h38.819z"/><path d="m197.914 89.268c-41.025 1.3-41.015 60.788 0 62.086 41.025-1.304 41.015-60.788 0-62.086zm0 46.564c-20.4-.362-20.4-30.683 0-31.043 20.398.363 20.395 30.684 0 31.043z"/><path d="m444.007 149.1c3.35-4.207 2.586-8.289 0-11.02-4.092-3.258-8.179-2.725-11.019 0a7.9 7.9 0 0 0 0 11.02c2.764 2.618 6.902 3.281 11.019 0z"/><path d="m75.993 448.514c-2.635 2.763-3.308 6.865 0 11.02a7.792 7.792 0 1 0 0-11.02z"/></svg>