<svg xmlns="http://www.w3.org/2000/svg" xmlns:xlink="http://www.w3.org/1999/xlink" width="40" zoomAndPan="magnify" viewBox="0 0 30 30.000001" height="40" preserveAspectRatio="xMidYMid meet" version="1.0"><defs><filter x="0%" y="0%" width="100%" height="100%" id="8de48c4aaf"><feColorMatrix values="0 0 0 0 1 0 0 0 0 1 0 0 0 0 1 0 0 0 1 0" color-interpolation-filters="sRGB"/></filter><g/><clipPath id="57bf39eefa"><path d="M 0.484375 0 L 29.515625 0 L 29.515625 29.03125 L 0.484375 29.03125 Z M 0.484375 0 " clip-rule="nonzero"/></clipPath><mask id="307967e42f"><g filter="url(#8de48c4aaf)"><rect x="-3" width="36" fill="#000000" y="-3" height="36.000001" fill-opacity="0.36"/></g></mask><clipPath id="6e93cee3b7"><path d="M 0.484375 0 L 29.515625 0 L 29.515625 29.03125 L 0.484375 29.03125 Z M 0.484375 0 " clip-rule="nonzero"/></clipPath><clipPath id="1ca41d84ae"><path d="M 15 0 C 6.984375 0 0.484375 6.5 0.484375 14.515625 C 0.484375 22.53125 6.984375 29.03125 15 29.03125 C 23.015625 29.03125 29.515625 22.53125 29.515625 14.515625 C 29.515625 6.5 23.015625 0 15 0 Z M 15 0 " clip-rule="nonzero"/></clipPath><clipPath id="07f364791d"><path d="M 0.484375 0 L 29.515625 0 L 29.515625 29.03125 L 0.484375 29.03125 Z M 0.484375 0 " clip-rule="nonzero"/></clipPath><clipPath id="6d1fb1dbd7"><path d="M 15 0 C 6.984375 0 0.484375 6.5 0.484375 14.515625 C 0.484375 22.53125 6.984375 29.03125 15 29.03125 C 23.015625 29.03125 29.515625 22.53125 29.515625 14.515625 C 29.515625 6.5 23.015625 0 15 0 Z M 15 0 " clip-rule="nonzero"/></clipPath><clipPath id="843971c141"><rect x="0" width="30" y="0" height="30"/></clipPath><clipPath id="b8779593e5"><rect x="0" width="30" y="0" height="30"/></clipPath><clipPath id="3274315fa1"><path d="M 5.296875 7 L 10 7 L 10 24 L 5.296875 24 Z M 5.296875 7 " clip-rule="nonzero"/></clipPath><clipPath id="e7b8e65307"><path d="M 8 7 L 24.894531 7 L 24.894531 26.855469 L 8 26.855469 Z M 8 7 " clip-rule="nonzero"/></clipPath><clipPath id="a1613237a7"><path d="M 5.296875 23 L 9 23 L 9 26.855469 L 5.296875 26.855469 Z M 5.296875 23 " clip-rule="nonzero"/></clipPath><clipPath id="6f11a84c1e"><path d="M 11 0.726562 L 18 0.726562 L 18 8 L 11 8 Z M 11 0.726562 " clip-rule="nonzero"/></clipPath><mask id="f7a9d22418"><g filter="url(#8de48c4aaf)"><rect x="-3" width="36" fill="#000000" y="-3" height="36.000001" fill-opacity="0.46"/></g></mask><clipPath id="e6d2649ca9"><path d="M 3 5 L 9 5 L 9 14 L 3 14 Z M 3 5 " clip-rule="nonzero"/></clipPath><clipPath id="a778284c23"><path d="M 0.941406 2.628906 L 11.714844 1.054688 L 13.394531 12.546875 L 2.621094 14.121094 Z M 0.941406 2.628906 " clip-rule="nonzero"/></clipPath><clipPath id="a080860b6b"><path d="M 0.941406 2.628906 L 11.714844 1.054688 L 13.394531 12.546875 L 2.621094 14.121094 Z M 0.941406 2.628906 " clip-rule="nonzero"/></clipPath><clipPath id="1e4e469893"><path d="M 0.941406 2.628906 L 11.714844 1.054688 L 13.394531 12.546875 L 2.621094 14.121094 Z M 0.941406 2.628906 " clip-rule="nonzero"/></clipPath><clipPath id="d209c6d82a"><path d="M 10 4 L 13 4 L 13 7 L 10 7 Z M 10 4 " clip-rule="nonzero"/></clipPath><clipPath id="f3a3b85fc6"><path d="M 0.941406 2.628906 L 11.714844 1.054688 L 13.394531 12.546875 L 2.621094 14.121094 Z M 0.941406 2.628906 " clip-rule="nonzero"/></clipPath><clipPath id="44d199b683"><path d="M 0.941406 2.628906 L 11.714844 1.054688 L 13.394531 12.546875 L 2.621094 14.121094 Z M 0.941406 2.628906 " clip-rule="nonzero"/></clipPath><clipPath id="6e89f62c31"><path d="M 0.941406 2.628906 L 11.714844 1.054688 L 13.394531 12.546875 L 2.621094 14.121094 Z M 0.941406 2.628906 " clip-rule="nonzero"/></clipPath><clipPath id="21a9caa0a5"><path d="M 6 1 L 10 1 L 10 5 L 6 5 Z M 6 1 " clip-rule="nonzero"/></clipPath><clipPath id="f34069e885"><path d="M 0.941406 2.628906 L 11.714844 1.054688 L 13.394531 12.546875 L 2.621094 14.121094 Z M 0.941406 2.628906 " clip-rule="nonzero"/></clipPath><clipPath id="e53a16c6bd"><path d="M 0.941406 2.628906 L 11.714844 1.054688 L 13.394531 12.546875 L 2.621094 14.121094 Z M 0.941406 2.628906 " clip-rule="nonzero"/></clipPath><clipPath id="45fc3aa41b"><path d="M 0.941406 2.628906 L 11.714844 1.054688 L 13.394531 12.546875 L 2.621094 14.121094 Z M 0.941406 2.628906 " clip-rule="nonzero"/></clipPath><clipPath id="c948120eb7"><path d="M 5 3 L 8 3 L 8 6 L 5 6 Z M 5 3 " clip-rule="nonzero"/></clipPath><clipPath id="76203b5d26"><path d="M 0.941406 2.628906 L 11.714844 1.054688 L 13.394531 12.546875 L 2.621094 14.121094 Z M 0.941406 2.628906 " clip-rule="nonzero"/></clipPath><clipPath id="72ca54aa34"><path d="M 0.941406 2.628906 L 11.714844 1.054688 L 13.394531 12.546875 L 2.621094 14.121094 Z M 0.941406 2.628906 " clip-rule="nonzero"/></clipPath><clipPath id="82323d346f"><path d="M 0.941406 2.628906 L 11.714844 1.054688 L 13.394531 12.546875 L 2.621094 14.121094 Z M 0.941406 2.628906 " clip-rule="nonzero"/></clipPath><clipPath id="17cbe679a8"><path d="M 5 4 L 9 4 L 9 7 L 5 7 Z M 5 4 " clip-rule="nonzero"/></clipPath><clipPath id="69e2c05012"><path d="M 0.941406 2.628906 L 11.714844 1.054688 L 13.394531 12.546875 L 2.621094 14.121094 Z M 0.941406 2.628906 " clip-rule="nonzero"/></clipPath><clipPath id="e033a30763"><path d="M 0.941406 2.628906 L 11.714844 1.054688 L 13.394531 12.546875 L 2.621094 14.121094 Z M 0.941406 2.628906 " clip-rule="nonzero"/></clipPath><clipPath id="6ab7ad2ef8"><path d="M 0.941406 2.628906 L 11.714844 1.054688 L 13.394531 12.546875 L 2.621094 14.121094 Z M 0.941406 2.628906 " clip-rule="nonzero"/></clipPath><clipPath id="8b19403ddd"><path d="M 7 5 L 13 5 L 13 8 L 7 8 Z M 7 5 " clip-rule="nonzero"/></clipPath><clipPath id="ad3f4d4b23"><path d="M 0.941406 2.628906 L 11.714844 1.054688 L 13.394531 12.546875 L 2.621094 14.121094 Z M 0.941406 2.628906 " clip-rule="nonzero"/></clipPath><clipPath id="56f1352bba"><path d="M 0.941406 2.628906 L 11.714844 1.054688 L 13.394531 12.546875 L 2.621094 14.121094 Z M 0.941406 2.628906 " clip-rule="nonzero"/></clipPath><clipPath id="f965eb3def"><path d="M 0.941406 2.628906 L 11.714844 1.054688 L 13.394531 12.546875 L 2.621094 14.121094 Z M 0.941406 2.628906 " clip-rule="nonzero"/></clipPath><clipPath id="bf9170beda"><path d="M 8 2 L 12 2 L 12 6 L 8 6 Z M 8 2 " clip-rule="nonzero"/></clipPath><clipPath id="aef8c10ea2"><path d="M 0.941406 2.628906 L 11.714844 1.054688 L 13.394531 12.546875 L 2.621094 14.121094 Z M 0.941406 2.628906 " clip-rule="nonzero"/></clipPath><clipPath id="a11c066aaa"><path d="M 0.941406 2.628906 L 11.714844 1.054688 L 13.394531 12.546875 L 2.621094 14.121094 Z M 0.941406 2.628906 " clip-rule="nonzero"/></clipPath><clipPath id="8b5f0b39c5"><path d="M 0.941406 2.628906 L 11.714844 1.054688 L 13.394531 12.546875 L 2.621094 14.121094 Z M 0.941406 2.628906 " clip-rule="nonzero"/></clipPath><clipPath id="311d297e00"><path d="M 6 3 L 11 3 L 11 7 L 6 7 Z M 6 3 " clip-rule="nonzero"/></clipPath><clipPath id="48b15c0316"><path d="M 0.941406 2.628906 L 11.714844 1.054688 L 13.394531 12.546875 L 2.621094 14.121094 Z M 0.941406 2.628906 " clip-rule="nonzero"/></clipPath><clipPath id="e130c62992"><path d="M 0.941406 2.628906 L 11.714844 1.054688 L 13.394531 12.546875 L 2.621094 14.121094 Z M 0.941406 2.628906 " clip-rule="nonzero"/></clipPath><clipPath id="c0165f7f3b"><path d="M 0.941406 2.628906 L 11.714844 1.054688 L 13.394531 12.546875 L 2.621094 14.121094 Z M 0.941406 2.628906 " clip-rule="nonzero"/></clipPath><clipPath id="30facbb92d"><path d="M 4 8 L 5 8 L 5 12 L 4 12 Z M 4 8 " clip-rule="nonzero"/></clipPath><clipPath id="a73623adbe"><path d="M 0.941406 2.628906 L 11.714844 1.054688 L 13.394531 12.546875 L 2.621094 14.121094 Z M 0.941406 2.628906 " clip-rule="nonzero"/></clipPath><clipPath id="59db6a9fbc"><path d="M 0.941406 2.628906 L 11.714844 1.054688 L 13.394531 12.546875 L 2.621094 14.121094 Z M 0.941406 2.628906 " clip-rule="nonzero"/></clipPath><clipPath id="ec75bc5cdd"><path d="M 0.941406 2.628906 L 11.714844 1.054688 L 13.394531 12.546875 L 2.621094 14.121094 Z M 0.941406 2.628906 " clip-rule="nonzero"/></clipPath><clipPath id="79d99cb772"><path d="M 5 6 L 7 6 L 7 9 L 5 9 Z M 5 6 " clip-rule="nonzero"/></clipPath><clipPath id="d92123b888"><path d="M 0.941406 2.628906 L 11.714844 1.054688 L 13.394531 12.546875 L 2.621094 14.121094 Z M 0.941406 2.628906 " clip-rule="nonzero"/></clipPath><clipPath id="a3a17cfd7b"><path d="M 0.941406 2.628906 L 11.714844 1.054688 L 13.394531 12.546875 L 2.621094 14.121094 Z M 0.941406 2.628906 " clip-rule="nonzero"/></clipPath><clipPath id="b8f1969053"><path d="M 0.941406 2.628906 L 11.714844 1.054688 L 13.394531 12.546875 L 2.621094 14.121094 Z M 0.941406 2.628906 " clip-rule="nonzero"/></clipPath><clipPath id="0ce3593f39"><path d="M 2 6 L 5 6 L 5 9 L 2 9 Z M 2 6 " clip-rule="nonzero"/></clipPath><clipPath id="317e3191c8"><path d="M 0.941406 2.628906 L 11.714844 1.054688 L 13.394531 12.546875 L 2.621094 14.121094 Z M 0.941406 2.628906 " clip-rule="nonzero"/></clipPath><clipPath id="ccd1754a1b"><path d="M 0.941406 2.628906 L 11.714844 1.054688 L 13.394531 12.546875 L 2.621094 14.121094 Z M 0.941406 2.628906 " clip-rule="nonzero"/></clipPath><clipPath id="d1c59ce84d"><path d="M 0.941406 2.628906 L 11.714844 1.054688 L 13.394531 12.546875 L 2.621094 14.121094 Z M 0.941406 2.628906 " clip-rule="nonzero"/></clipPath><clipPath id="19ab2983b1"><path d="M 1 7 L 4 7 L 4 9 L 1 9 Z M 1 7 " clip-rule="nonzero"/></clipPath><clipPath id="e7b9debb4b"><path d="M 0.941406 2.628906 L 11.714844 1.054688 L 13.394531 12.546875 L 2.621094 14.121094 Z M 0.941406 2.628906 " clip-rule="nonzero"/></clipPath><clipPath id="4e380bbe97"><path d="M 0.941406 2.628906 L 11.714844 1.054688 L 13.394531 12.546875 L 2.621094 14.121094 Z M 0.941406 2.628906 " clip-rule="nonzero"/></clipPath><clipPath id="91cb85c6fa"><path d="M 0.941406 2.628906 L 11.714844 1.054688 L 13.394531 12.546875 L 2.621094 14.121094 Z M 0.941406 2.628906 " clip-rule="nonzero"/></clipPath><clipPath id="00ce0eeb22"><path d="M 2 8 L 5 8 L 5 10 L 2 10 Z M 2 8 " clip-rule="nonzero"/></clipPath><clipPath id="cb529cb74a"><path d="M 0.941406 2.628906 L 11.714844 1.054688 L 13.394531 12.546875 L 2.621094 14.121094 Z M 0.941406 2.628906 " clip-rule="nonzero"/></clipPath><clipPath id="0ec50923c8"><path d="M 0.941406 2.628906 L 11.714844 1.054688 L 13.394531 12.546875 L 2.621094 14.121094 Z M 0.941406 2.628906 " clip-rule="nonzero"/></clipPath><clipPath id="f4bb149624"><path d="M 0.941406 2.628906 L 11.714844 1.054688 L 13.394531 12.546875 L 2.621094 14.121094 Z M 0.941406 2.628906 " clip-rule="nonzero"/></clipPath><clipPath id="202a2e7cf8"><path d="M 4 7 L 7 7 L 7 10 L 4 10 Z M 4 7 " clip-rule="nonzero"/></clipPath><clipPath id="95c81e22ae"><path d="M 0.941406 2.628906 L 11.714844 1.054688 L 13.394531 12.546875 L 2.621094 14.121094 Z M 0.941406 2.628906 " clip-rule="nonzero"/></clipPath><clipPath id="fa7113100a"><path d="M 0.941406 2.628906 L 11.714844 1.054688 L 13.394531 12.546875 L 2.621094 14.121094 Z M 0.941406 2.628906 " clip-rule="nonzero"/></clipPath><clipPath id="e3a7059d64"><path d="M 0.941406 2.628906 L 11.714844 1.054688 L 13.394531 12.546875 L 2.621094 14.121094 Z M 0.941406 2.628906 " clip-rule="nonzero"/></clipPath><clipPath id="cbf7f0a280"><path d="M 3 6 L 6 6 L 6 9 L 3 9 Z M 3 6 " clip-rule="nonzero"/></clipPath><clipPath id="dd2b89fbca"><path d="M 0.941406 2.628906 L 11.714844 1.054688 L 13.394531 12.546875 L 2.621094 14.121094 Z M 0.941406 2.628906 " clip-rule="nonzero"/></clipPath><clipPath id="2acad0accd"><path d="M 0.941406 2.628906 L 11.714844 1.054688 L 13.394531 12.546875 L 2.621094 14.121094 Z M 0.941406 2.628906 " clip-rule="nonzero"/></clipPath><clipPath id="c99100fe70"><path d="M 0.941406 2.628906 L 11.714844 1.054688 L 13.394531 12.546875 L 2.621094 14.121094 Z M 0.941406 2.628906 " clip-rule="nonzero"/></clipPath><clipPath id="9a714283cd"><path d="M 2 7 L 6 7 L 6 10 L 2 10 Z M 2 7 " clip-rule="nonzero"/></clipPath><clipPath id="26033bbb71"><path d="M 0.941406 2.628906 L 11.714844 1.054688 L 13.394531 12.546875 L 2.621094 14.121094 Z M 0.941406 2.628906 " clip-rule="nonzero"/></clipPath><clipPath id="f6e13bb6f5"><path d="M 0.941406 2.628906 L 11.714844 1.054688 L 13.394531 12.546875 L 2.621094 14.121094 Z M 0.941406 2.628906 " clip-rule="nonzero"/></clipPath><clipPath id="7c4edc8dae"><path d="M 0.941406 2.628906 L 11.714844 1.054688 L 13.394531 12.546875 L 2.621094 14.121094 Z M 0.941406 2.628906 " clip-rule="nonzero"/></clipPath><clipPath id="6b32ed1b03"><path d="M 5 8 L 10 8 L 10 10 L 5 10 Z M 5 8 " clip-rule="nonzero"/></clipPath><clipPath id="b8abf6fd27"><path d="M 0.941406 2.628906 L 11.714844 1.054688 L 13.394531 12.546875 L 2.621094 14.121094 Z M 0.941406 2.628906 " clip-rule="nonzero"/></clipPath><clipPath id="742e540096"><path d="M 0.941406 2.628906 L 11.714844 1.054688 L 13.394531 12.546875 L 2.621094 14.121094 Z M 0.941406 2.628906 " clip-rule="nonzero"/></clipPath><clipPath id="de9b84dd5b"><path d="M 0.941406 2.628906 L 11.714844 1.054688 L 13.394531 12.546875 L 2.621094 14.121094 Z M 0.941406 2.628906 " clip-rule="nonzero"/></clipPath><clipPath id="4a71638994"><path d="M 9 8 L 10 8 L 10 10 L 9 10 Z M 9 8 " clip-rule="nonzero"/></clipPath><clipPath id="cefbf93f82"><path d="M 0.941406 2.628906 L 11.714844 1.054688 L 13.394531 12.546875 L 2.621094 14.121094 Z M 0.941406 2.628906 " clip-rule="nonzero"/></clipPath><clipPath id="ca758809a3"><path d="M 0.941406 2.628906 L 11.714844 1.054688 L 13.394531 12.546875 L 2.621094 14.121094 Z M 0.941406 2.628906 " clip-rule="nonzero"/></clipPath><clipPath id="e46293464a"><path d="M 0.941406 2.628906 L 11.714844 1.054688 L 13.394531 12.546875 L 2.621094 14.121094 Z M 0.941406 2.628906 " clip-rule="nonzero"/></clipPath><clipPath id="6a6570bf9d"><path d="M 9 7 L 11 7 L 11 9 L 9 9 Z M 9 7 " clip-rule="nonzero"/></clipPath><clipPath id="f88c55ae74"><path d="M 0.941406 2.628906 L 11.714844 1.054688 L 13.394531 12.546875 L 2.621094 14.121094 Z M 0.941406 2.628906 " clip-rule="nonzero"/></clipPath><clipPath id="95c285fa24"><path d="M 0.941406 2.628906 L 11.714844 1.054688 L 13.394531 12.546875 L 2.621094 14.121094 Z M 0.941406 2.628906 " clip-rule="nonzero"/></clipPath><clipPath id="bdb4201382"><path d="M 0.941406 2.628906 L 11.714844 1.054688 L 13.394531 12.546875 L 2.621094 14.121094 Z M 0.941406 2.628906 " clip-rule="nonzero"/></clipPath><clipPath id="882d150cf4"><path d="M 8 7 L 10 7 L 10 9 L 8 9 Z M 8 7 " clip-rule="nonzero"/></clipPath><clipPath id="e03a2793b6"><path d="M 0.941406 2.628906 L 11.714844 1.054688 L 13.394531 12.546875 L 2.621094 14.121094 Z M 0.941406 2.628906 " clip-rule="nonzero"/></clipPath><clipPath id="e25848a910"><path d="M 0.941406 2.628906 L 11.714844 1.054688 L 13.394531 12.546875 L 2.621094 14.121094 Z M 0.941406 2.628906 " clip-rule="nonzero"/></clipPath><clipPath id="05c024ae68"><path d="M 0.941406 2.628906 L 11.714844 1.054688 L 13.394531 12.546875 L 2.621094 14.121094 Z M 0.941406 2.628906 " clip-rule="nonzero"/></clipPath><clipPath id="c31249e33f"><path d="M 8 8 L 10 8 L 10 10 L 8 10 Z M 8 8 " clip-rule="nonzero"/></clipPath><clipPath id="f6d91575a6"><path d="M 0.941406 2.628906 L 11.714844 1.054688 L 13.394531 12.546875 L 2.621094 14.121094 Z M 0.941406 2.628906 " clip-rule="nonzero"/></clipPath><clipPath id="9b3fd403cd"><path d="M 0.941406 2.628906 L 11.714844 1.054688 L 13.394531 12.546875 L 2.621094 14.121094 Z M 0.941406 2.628906 " clip-rule="nonzero"/></clipPath><clipPath id="95ecac56af"><path d="M 0.941406 2.628906 L 11.714844 1.054688 L 13.394531 12.546875 L 2.621094 14.121094 Z M 0.941406 2.628906 " clip-rule="nonzero"/></clipPath><clipPath id="7cebcf8c49"><path d="M 9 8 L 10 8 L 10 10 L 9 10 Z M 9 8 " clip-rule="nonzero"/></clipPath><clipPath id="cdaf72b8f5"><path d="M 0.941406 2.628906 L 11.714844 1.054688 L 13.394531 12.546875 L 2.621094 14.121094 Z M 0.941406 2.628906 " clip-rule="nonzero"/></clipPath><clipPath id="6313ac31e0"><path d="M 0.941406 2.628906 L 11.714844 1.054688 L 13.394531 12.546875 L 2.621094 14.121094 Z M 0.941406 2.628906 " clip-rule="nonzero"/></clipPath><clipPath id="d47a3e4d4d"><path d="M 0.941406 2.628906 L 11.714844 1.054688 L 13.394531 12.546875 L 2.621094 14.121094 Z M 0.941406 2.628906 " clip-rule="nonzero"/></clipPath><clipPath id="26fecf0fad"><path d="M 8 7 L 10 7 L 10 9 L 8 9 Z M 8 7 " clip-rule="nonzero"/></clipPath><clipPath id="146c44791a"><path d="M 0.941406 2.628906 L 11.714844 1.054688 L 13.394531 12.546875 L 2.621094 14.121094 Z M 0.941406 2.628906 " clip-rule="nonzero"/></clipPath><clipPath id="56c420544c"><path d="M 0.941406 2.628906 L 11.714844 1.054688 L 13.394531 12.546875 L 2.621094 14.121094 Z M 0.941406 2.628906 " clip-rule="nonzero"/></clipPath><clipPath id="d6d22884ec"><path d="M 0.941406 2.628906 L 11.714844 1.054688 L 13.394531 12.546875 L 2.621094 14.121094 Z M 0.941406 2.628906 " clip-rule="nonzero"/></clipPath><clipPath id="a038b4091a"><path d="M 4 11 L 6 11 L 6 13 L 4 13 Z M 4 11 " clip-rule="nonzero"/></clipPath><clipPath id="65c668b28f"><path d="M 0.941406 2.628906 L 11.714844 1.054688 L 13.394531 12.546875 L 2.621094 14.121094 Z M 0.941406 2.628906 " clip-rule="nonzero"/></clipPath><clipPath id="054aa2fc7b"><path d="M 0.941406 2.628906 L 11.714844 1.054688 L 13.394531 12.546875 L 2.621094 14.121094 Z M 0.941406 2.628906 " clip-rule="nonzero"/></clipPath><clipPath id="a72c5b64cc"><path d="M 0.941406 2.628906 L 11.714844 1.054688 L 13.394531 12.546875 L 2.621094 14.121094 Z M 0.941406 2.628906 " clip-rule="nonzero"/></clipPath><clipPath id="1999a1d48f"><path d="M 4 9 L 7 9 L 7 11 L 4 11 Z M 4 9 " clip-rule="nonzero"/></clipPath><clipPath id="c5ace59993"><path d="M 0.941406 2.628906 L 11.714844 1.054688 L 13.394531 12.546875 L 2.621094 14.121094 Z M 0.941406 2.628906 " clip-rule="nonzero"/></clipPath><clipPath id="ca85b86e46"><path d="M 0.941406 2.628906 L 11.714844 1.054688 L 13.394531 12.546875 L 2.621094 14.121094 Z M 0.941406 2.628906 " clip-rule="nonzero"/></clipPath><clipPath id="0c81e15881"><path d="M 0.941406 2.628906 L 11.714844 1.054688 L 13.394531 12.546875 L 2.621094 14.121094 Z M 0.941406 2.628906 " clip-rule="nonzero"/></clipPath><clipPath id="4a7cfa0e5e"><path d="M 4 9 L 5 9 L 5 12 L 4 12 Z M 4 9 " clip-rule="nonzero"/></clipPath><clipPath id="18c8600bee"><path d="M 0.941406 2.628906 L 11.714844 1.054688 L 13.394531 12.546875 L 2.621094 14.121094 Z M 0.941406 2.628906 " clip-rule="nonzero"/></clipPath><clipPath id="a817277cb9"><path d="M 0.941406 2.628906 L 11.714844 1.054688 L 13.394531 12.546875 L 2.621094 14.121094 Z M 0.941406 2.628906 " clip-rule="nonzero"/></clipPath><clipPath id="95be5ed0f0"><path d="M 0.941406 2.628906 L 11.714844 1.054688 L 13.394531 12.546875 L 2.621094 14.121094 Z M 0.941406 2.628906 " clip-rule="nonzero"/></clipPath><clipPath id="605eda1ef7"><path d="M 6 6 L 8 6 L 8 9 L 6 9 Z M 6 6 " clip-rule="nonzero"/></clipPath><clipPath id="5a9df5364e"><path d="M 0.941406 2.628906 L 11.714844 1.054688 L 13.394531 12.546875 L 2.621094 14.121094 Z M 0.941406 2.628906 " clip-rule="nonzero"/></clipPath><clipPath id="63d3b3a806"><path d="M 0.941406 2.628906 L 11.714844 1.054688 L 13.394531 12.546875 L 2.621094 14.121094 Z M 0.941406 2.628906 " clip-rule="nonzero"/></clipPath><clipPath id="cfd1daf9d5"><path d="M 0.941406 2.628906 L 11.714844 1.054688 L 13.394531 12.546875 L 2.621094 14.121094 Z M 0.941406 2.628906 " clip-rule="nonzero"/></clipPath><clipPath id="21985e7587"><path d="M 7 8 L 9 8 L 9 9 L 7 9 Z M 7 8 " clip-rule="nonzero"/></clipPath><clipPath id="151e308f0e"><path d="M 0.941406 2.628906 L 11.714844 1.054688 L 13.394531 12.546875 L 2.621094 14.121094 Z M 0.941406 2.628906 " clip-rule="nonzero"/></clipPath><clipPath id="4190c00b07"><path d="M 0.941406 2.628906 L 11.714844 1.054688 L 13.394531 12.546875 L 2.621094 14.121094 Z M 0.941406 2.628906 " clip-rule="nonzero"/></clipPath><clipPath id="f7e0ae5568"><path d="M 0.941406 2.628906 L 11.714844 1.054688 L 13.394531 12.546875 L 2.621094 14.121094 Z M 0.941406 2.628906 " clip-rule="nonzero"/></clipPath><clipPath id="af7b91b1f7"><path d="M 7 9 L 8 9 L 8 10 L 7 10 Z M 7 9 " clip-rule="nonzero"/></clipPath><clipPath id="72f4e6bee5"><path d="M 0.941406 2.628906 L 11.714844 1.054688 L 13.394531 12.546875 L 2.621094 14.121094 Z M 0.941406 2.628906 " clip-rule="nonzero"/></clipPath><clipPath id="cc64a8d67f"><path d="M 0.941406 2.628906 L 11.714844 1.054688 L 13.394531 12.546875 L 2.621094 14.121094 Z M 0.941406 2.628906 " clip-rule="nonzero"/></clipPath><clipPath id="88baa11c4a"><path d="M 0.941406 2.628906 L 11.714844 1.054688 L 13.394531 12.546875 L 2.621094 14.121094 Z M 0.941406 2.628906 " clip-rule="nonzero"/></clipPath><clipPath id="807d75013a"><path d="M 3 11 L 4 11 L 4 12 L 3 12 Z M 3 11 " clip-rule="nonzero"/></clipPath><clipPath id="4ac3176bb3"><path d="M 0.941406 2.628906 L 11.714844 1.054688 L 13.394531 12.546875 L 2.621094 14.121094 Z M 0.941406 2.628906 " clip-rule="nonzero"/></clipPath><clipPath id="08b6149102"><path d="M 0.941406 2.628906 L 11.714844 1.054688 L 13.394531 12.546875 L 2.621094 14.121094 Z M 0.941406 2.628906 " clip-rule="nonzero"/></clipPath><clipPath id="541b5e49b5"><path d="M 0.941406 2.628906 L 11.714844 1.054688 L 13.394531 12.546875 L 2.621094 14.121094 Z M 0.941406 2.628906 " clip-rule="nonzero"/></clipPath><clipPath id="2d3ea486be"><path d="M 6 10 L 7 10 L 7 12 L 6 12 Z M 6 10 " clip-rule="nonzero"/></clipPath><clipPath id="e2a74894f7"><path d="M 0.941406 2.628906 L 11.714844 1.054688 L 13.394531 12.546875 L 2.621094 14.121094 Z M 0.941406 2.628906 " clip-rule="nonzero"/></clipPath><clipPath id="6b1c5413cc"><path d="M 0.941406 2.628906 L 11.714844 1.054688 L 13.394531 12.546875 L 2.621094 14.121094 Z M 0.941406 2.628906 " clip-rule="nonzero"/></clipPath><clipPath id="eed6a2576a"><path d="M 0.941406 2.628906 L 11.714844 1.054688 L 13.394531 12.546875 L 2.621094 14.121094 Z M 0.941406 2.628906 " clip-rule="nonzero"/></clipPath><clipPath id="c562f5f5d2"><path d="M 4 12 L 5 12 L 5 13 L 4 13 Z M 4 12 " clip-rule="nonzero"/></clipPath><clipPath id="8ea8b9b9d0"><path d="M 0.941406 2.628906 L 11.714844 1.054688 L 13.394531 12.546875 L 2.621094 14.121094 Z M 0.941406 2.628906 " clip-rule="nonzero"/></clipPath><clipPath id="1d83ec8e52"><path d="M 0.941406 2.628906 L 11.714844 1.054688 L 13.394531 12.546875 L 2.621094 14.121094 Z M 0.941406 2.628906 " clip-rule="nonzero"/></clipPath><clipPath id="9b196cca9e"><path d="M 0.941406 2.628906 L 11.714844 1.054688 L 13.394531 12.546875 L 2.621094 14.121094 Z M 0.941406 2.628906 " clip-rule="nonzero"/></clipPath><clipPath id="f8aaba931f"><path d="M 4 5 L 5 5 L 5 6 L 4 6 Z M 4 5 " clip-rule="nonzero"/></clipPath><clipPath id="23a87844e4"><path d="M 0.941406 2.628906 L 11.714844 1.054688 L 13.394531 12.546875 L 2.621094 14.121094 Z M 0.941406 2.628906 " clip-rule="nonzero"/></clipPath><clipPath id="98f0b3ccfb"><path d="M 0.941406 2.628906 L 11.714844 1.054688 L 13.394531 12.546875 L 2.621094 14.121094 Z M 0.941406 2.628906 " clip-rule="nonzero"/></clipPath><clipPath id="68f71fc880"><path d="M 0.941406 2.628906 L 11.714844 1.054688 L 13.394531 12.546875 L 2.621094 14.121094 Z M 0.941406 2.628906 " clip-rule="nonzero"/></clipPath><clipPath id="0f0870c0c1"><path d="M 11 7 L 12 7 L 12 8 L 11 8 Z M 11 7 " clip-rule="nonzero"/></clipPath><clipPath id="4fa4949ced"><path d="M 0.941406 2.628906 L 11.714844 1.054688 L 13.394531 12.546875 L 2.621094 14.121094 Z M 0.941406 2.628906 " clip-rule="nonzero"/></clipPath><clipPath id="8afd1a016f"><path d="M 0.941406 2.628906 L 11.714844 1.054688 L 13.394531 12.546875 L 2.621094 14.121094 Z M 0.941406 2.628906 " clip-rule="nonzero"/></clipPath><clipPath id="1eb0ad76f5"><path d="M 0.941406 2.628906 L 11.714844 1.054688 L 13.394531 12.546875 L 2.621094 14.121094 Z M 0.941406 2.628906 " clip-rule="nonzero"/></clipPath><clipPath id="c153d923c1"><rect x="0" width="15" y="0" height="15"/></clipPath><clipPath id="a6cfd69eeb"><path d="M 0.613281 3 L 10 3 L 10 13 L 0.613281 13 Z M 0.613281 3 " clip-rule="nonzero"/></clipPath><clipPath id="ad874ea020"><rect x="0" width="18" y="0" height="18"/></clipPath><clipPath id="34b8809f16"><path d="M 0.0078125 1 L 13.710938 1 L 13.710938 3.621094 L 0.0078125 3.621094 Z M 0.0078125 1 " clip-rule="nonzero"/></clipPath><clipPath id="1bb75d1e6b"><path d="M 13 1 L 13.710938 1 L 13.710938 2 L 13 2 Z M 13 1 " clip-rule="nonzero"/></clipPath><clipPath id="354284a83d"><rect x="0" width="14" y="0" height="4"/></clipPath></defs><g clip-path="url(#57bf39eefa)"><path fill="#ffffff" d="M 0.484375 0 L 29.515625 0 L 29.515625 29.03125 L 0.484375 29.03125 Z M 0.484375 0 " fill-opacity="1" fill-rule="nonzero"/><path fill="#fffefe" d="M 0.484375 0 L 29.515625 0 L 29.515625 29.03125 L 0.484375 29.03125 Z M 0.484375 0 " fill-opacity="1" fill-rule="nonzero"/><g mask="url(#307967e42f)"><g transform="matrix(1, 0, 0, 1, 0, 0.000000000000005692)"><g clip-path="url(#b8779593e5)"><g clip-path="url(#6e93cee3b7)"><g clip-path="url(#1ca41d84ae)"><g transform="matrix(1, 0, 0, 1, 0, 0.000000000000005692)"><g clip-path="url(#843971c141)"><g clip-path="url(#07f364791d)"><g clip-path="url(#6d1fb1dbd7)"><path fill="#cb6ce6" d="M 0.484375 0 L 29.515625 0 L 29.515625 29.03125 L 0.484375 29.03125 Z M 0.484375 0 " fill-opacity="1" fill-rule="nonzero"/></g></g></g></g></g></g></g></g></g></g><g clip-path="url(#3274315fa1)"><path fill="#724947" d="M 9.117188 8.3125 L 9.671875 7.820312 L 7.394531 7.449219 L 5.300781 23.214844 L 8.824219 23.117188 L 9.117188 8.3125 " fill-opacity="1" fill-rule="nonzero"/></g><path fill="#e6aea9" d="M 9.117188 8.3125 L 23.40625 7.449219 L 20.746094 7.121094 L 21.3125 6.339844 L 7.394531 7.449219 L 9.671875 7.816406 L 9.117188 8.3125 " fill-opacity="1" fill-rule="nonzero"/><g clip-path="url(#e7b8e65307)"><path fill="#faefee" d="M 23.40625 7.449219 L 21.246094 7.578125 L 9.117188 8.3125 L 8.824219 23.117188 L 8.746094 26.910156 L 24.699219 25.246094 L 23.40625 7.449219 " fill-opacity="1" fill-rule="nonzero"/></g><g clip-path="url(#a1613237a7)"><path fill="#e6aea9" d="M 5.300781 23.214844 L 8.746094 26.910156 L 8.824219 23.117188 Z M 5.300781 23.214844 " fill-opacity="1" fill-rule="nonzero"/></g><path fill="#724947" d="M 13.402344 9.421875 L 12.839844 9.417969 C 12.84375 9.101562 12.941406 1.679688 16.21875 1.441406 C 16.363281 1.40625 16.851562 1.335938 17.414062 1.722656 C 18.277344 2.316406 19.363281 4.042969 19.621094 8.910156 L 19.058594 8.941406 C 18.800781 4.101562 17.734375 2.644531 17.121094 2.203125 C 16.6875 1.898438 16.359375 1.984375 16.34375 1.992188 L 16.277344 2 C 13.96875 2.140625 13.417969 7.40625 13.402344 9.421875 " fill-opacity="1" fill-rule="nonzero"/><g clip-path="url(#6f11a84c1e)"><path fill="#724947" d="M 11.304688 7.121094 C 11.300781 6.960938 11.234375 3.15625 12.773438 1.589844 C 13.207031 1.144531 13.726562 0.917969 14.320312 0.910156 C 14.515625 0.867188 15.386719 0.726562 16.21875 1.371094 C 17.300781 2.214844 17.824219 3.992188 17.773438 6.648438 L 17.210938 6.640625 C 17.269531 3.570312 16.519531 2.328125 15.882812 1.824219 C 15.183594 1.273438 14.457031 1.453125 14.425781 1.460938 L 14.351562 1.472656 C 13.898438 1.472656 13.511719 1.636719 13.175781 1.980469 C 11.804688 3.382812 11.863281 7.070312 11.867188 7.109375 L 11.304688 7.121094 " fill-opacity="1" fill-rule="nonzero"/></g><path fill="#724947" d="M 20.746094 7.121094 L 21.3125 6.339844 L 21.597656 7.226562 L 20.746094 7.121094 " fill-opacity="1" fill-rule="nonzero"/><path fill="#724947" d="M 13.773438 9.421875 C 13.773438 9.765625 13.492188 10.046875 13.148438 10.046875 C 12.800781 10.046875 12.523438 9.765625 12.523438 9.421875 C 12.523438 9.078125 12.800781 8.796875 13.148438 8.796875 C 13.492188 8.796875 13.773438 9.078125 13.773438 9.421875 " fill-opacity="1" fill-rule="nonzero"/><path fill="#724947" d="M 19.933594 8.925781 C 19.933594 9.269531 19.652344 9.550781 19.308594 9.550781 C 18.964844 9.550781 18.683594 9.269531 18.683594 8.925781 C 18.683594 8.582031 18.964844 8.300781 19.308594 8.300781 C 19.652344 8.300781 19.933594 8.582031 19.933594 8.925781 " fill-opacity="1" fill-rule="nonzero"/><g mask="url(#f7a9d22418)"><g transform="matrix(1, 0, 0, 1, 9, 8)"><g clip-path="url(#c153d923c1)"><g clip-path="url(#e6d2649ca9)"><g clip-path="url(#a778284c23)"><g clip-path="url(#a080860b6b)"><g clip-path="url(#1e4e469893)"><path fill="#724947" d="M 3.644531 13.972656 L 3.640625 13.972656 C 3.597656 13.972656 3.578125 13.957031 3.574219 13.914062 C 3.546875 13.433594 3.785156 12.5 4.175781 11.589844 C 4.808594 10.117188 5.476562 9.460938 5.816406 9.203125 C 6.535156 8.65625 7.496094 7.785156 7.980469 6.746094 C 8.269531 6.125 8.253906 5.734375 8.25 5.730469 C 8.25 5.6875 8.269531 5.667969 8.308594 5.667969 C 8.347656 5.664062 8.371094 5.683594 8.375 5.722656 C 8.375 5.738281 8.398438 6.140625 8.097656 6.789062 C 7.605469 7.855469 6.625 8.746094 5.890625 9.300781 C 5.558594 9.554688 4.910156 10.191406 4.289062 11.640625 C 3.914062 12.519531 3.667969 13.449219 3.699219 13.90625 C 3.699219 13.945312 3.683594 13.964844 3.644531 13.972656 Z M 3.644531 13.972656 " fill-opacity="1" fill-rule="nonzero"/></g></g></g></g><g clip-path="url(#d209c6d82a)"><g clip-path="url(#f3a3b85fc6)"><g clip-path="url(#44d199b683)"><g clip-path="url(#6e89f62c31)"><path fill="#e6aea9" d="M 11.511719 4.515625 C 11.511719 4.515625 12.089844 4.636719 12.222656 5.078125 C 12.359375 5.515625 11.539062 6.238281 11.539062 6.238281 L 10.117188 5.882812 L 10.195312 5.230469 Z M 11.511719 4.515625 " fill-opacity="1" fill-rule="nonzero"/></g></g></g></g><g clip-path="url(#21a9caa0a5)"><g clip-path="url(#f34069e885)"><g clip-path="url(#e53a16c6bd)"><g clip-path="url(#45fc3aa41b)"><path fill="#b77574" d="M 9.085938 4.511719 C 9.085938 4.511719 9.972656 3.417969 9.945312 2.875 C 9.917969 2.328125 9.601562 1.972656 9.28125 1.941406 C 8.957031 1.910156 8.792969 2.160156 8.683594 2.121094 C 8.574219 2.082031 8.21875 1.566406 7.621094 1.953125 C 7.023438 2.34375 6.617188 2.976562 6.71875 3.632812 C 6.816406 4.285156 9.085938 4.511719 9.085938 4.511719 Z M 9.085938 4.511719 " fill-opacity="1" fill-rule="nonzero"/></g></g></g></g><g clip-path="url(#c948120eb7)"><g clip-path="url(#76203b5d26)"><g clip-path="url(#72ca54aa34)"><g clip-path="url(#82323d346f)"><path fill="#e6aea9" d="M 7.074219 3.714844 C 7.074219 3.714844 6.855469 3.066406 6.332031 3.066406 C 5.808594 3.066406 5.644531 3.464844 5.441406 3.554688 C 5.234375 3.648438 5.375 4.269531 5.730469 4.53125 C 6.085938 4.792969 7.625 5.734375 7.625 5.734375 Z M 7.074219 3.714844 " fill-opacity="1" fill-rule="nonzero"/></g></g></g></g><g clip-path="url(#17cbe679a8)"><g clip-path="url(#69e2c05012)"><g clip-path="url(#e033a30763)"><g clip-path="url(#6ab7ad2ef8)"><path fill="#e6aea9" d="M 7.210938 5.359375 C 7.210938 5.359375 6.320312 4.421875 5.605469 4.539062 C 4.886719 4.660156 4.9375 5.046875 5.152344 5.390625 C 5.367188 5.734375 5.820312 5.851562 5.765625 5.9375 C 5.710938 6.019531 5.738281 6.152344 5.894531 6.289062 C 6.046875 6.425781 6.527344 6.472656 6.738281 6.523438 C 6.945312 6.578125 7.605469 6.742188 7.984375 6.519531 C 8.359375 6.292969 7.210938 5.359375 7.210938 5.359375 Z M 7.210938 5.359375 " fill-opacity="1" fill-rule="nonzero"/></g></g></g></g><g clip-path="url(#8b19403ddd)"><g clip-path="url(#ad3f4d4b23)"><g clip-path="url(#56f1352bba)"><g clip-path="url(#f965eb3def)"><path fill="#e6aea9" d="M 10.476562 5.777344 C 10.476562 5.777344 10.867188 5.425781 11.324219 5.6875 C 11.78125 5.953125 12.1875 6.242188 12.042969 6.394531 C 11.894531 6.546875 11.492188 6.816406 11.382812 6.984375 C 11.269531 7.152344 10.023438 7.535156 8.324219 6.628906 C 6.625 5.722656 10.476562 5.777344 10.476562 5.777344 Z M 10.476562 5.777344 " fill-opacity="1" fill-rule="nonzero"/></g></g></g></g><g clip-path="url(#bf9170beda)"><g clip-path="url(#aef8c10ea2)"><g clip-path="url(#a11c066aaa)"><g clip-path="url(#8b5f0b39c5)"><path fill="#b77574" d="M 9.691406 3.339844 C 9.691406 3.339844 10.648438 2.792969 11.175781 3.082031 C 11.707031 3.367188 11.753906 3.65625 11.699219 3.894531 C 11.648438 4.132812 11.808594 4.359375 11.550781 4.675781 C 11.339844 4.929688 9.738281 6.140625 9.023438 5.023438 C 8.308594 3.902344 9.691406 3.339844 9.691406 3.339844 Z M 9.691406 3.339844 " fill-opacity="1" fill-rule="nonzero"/></g></g></g></g><g clip-path="url(#311d297e00)"><g clip-path="url(#48b15c0316)"><g clip-path="url(#e130c62992)"><g clip-path="url(#c0165f7f3b)"><path fill="#c48783" d="M 8.324219 6.628906 C 8.140625 6.625 7.988281 6.554688 7.867188 6.417969 C 7.550781 6.050781 6.789062 5.027344 7.042969 3.832031 C 7.363281 2.335938 8.632812 3.65625 9.183594 4.445312 C 9.734375 5.230469 10.589844 5.078125 10.53125 5.636719 C 10.480469 6.105469 9.058594 6.648438 8.324219 6.628906 Z M 8.324219 6.628906 " fill-opacity="1" fill-rule="nonzero"/></g></g></g></g><g clip-path="url(#30facbb92d)"><g clip-path="url(#a73623adbe)"><g clip-path="url(#59db6a9fbc)"><g clip-path="url(#ec75bc5cdd)"><path fill="#724947" d="M 4.480469 11.164062 C 4.414062 11.171875 4.394531 11.144531 4.414062 11.082031 C 4.789062 9.910156 4.214844 8.652344 4.210938 8.636719 C 4.191406 8.601562 4.203125 8.574219 4.238281 8.554688 C 4.277344 8.539062 4.304688 8.546875 4.320312 8.585938 C 4.347656 8.640625 4.921875 9.898438 4.53125 11.121094 C 4.523438 11.144531 4.503906 11.160156 4.480469 11.164062 Z M 4.480469 11.164062 " fill-opacity="1" fill-rule="nonzero"/></g></g></g></g><g clip-path="url(#79d99cb772)"><g clip-path="url(#d92123b888)"><g clip-path="url(#a3a17cfd7b)"><g clip-path="url(#b8f1969053)"><path fill="#e6aea9" d="M 5.519531 6.863281 C 5.519531 6.863281 5.875 6.722656 6.101562 6.914062 C 6.328125 7.101562 6.140625 7.785156 6.140625 7.785156 L 5.25 8.101562 L 5.0625 7.71875 Z M 5.519531 6.863281 " fill-opacity="1" fill-rule="nonzero"/></g></g></g></g><g clip-path="url(#0ce3593f39)"><g clip-path="url(#317e3191c8)"><g clip-path="url(#ccd1754a1b)"><g clip-path="url(#d1c59ce84d)"><path fill="#b77574" d="M 4.210938 7.730469 C 4.210938 7.730469 4.300781 6.820312 4.09375 6.535156 C 3.886719 6.25 3.59375 6.171875 3.40625 6.269531 C 3.222656 6.367188 3.222656 6.5625 3.148438 6.578125 C 3.078125 6.597656 2.703125 6.445312 2.519531 6.867188 C 2.332031 7.292969 2.335938 7.78125 2.621094 8.097656 C 2.90625 8.417969 4.210938 7.730469 4.210938 7.730469 Z M 4.210938 7.730469 " fill-opacity="1" fill-rule="nonzero"/></g></g></g></g><g clip-path="url(#19ab2983b1)"><g clip-path="url(#e7b9debb4b)"><g clip-path="url(#4e380bbe97)"><g clip-path="url(#91cb85c6fa)"><path fill="#e6aea9" d="M 2.839844 8.015625 C 2.839844 8.015625 2.496094 7.742188 2.214844 7.933594 C 1.933594 8.121094 1.984375 8.394531 1.90625 8.515625 C 1.828125 8.636719 2.121094 8.925781 2.40625 8.9375 C 2.691406 8.953125 3.851562 8.914062 3.851562 8.914062 Z M 2.839844 8.015625 " fill-opacity="1" fill-rule="nonzero"/></g></g></g></g><g clip-path="url(#00ce0eeb22)"><g clip-path="url(#cb529cb74a)"><g clip-path="url(#0ec50923c8)"><g clip-path="url(#f4bb149624)"><path fill="#e6aea9" d="M 3.496094 8.859375 C 3.496094 8.859375 2.6875 8.667969 2.339844 8.988281 C 1.996094 9.3125 2.160156 9.503906 2.398438 9.613281 C 2.632812 9.71875 2.921875 9.621094 2.921875 9.6875 C 2.921875 9.753906 2.980469 9.816406 3.113281 9.835938 C 3.246094 9.855469 3.523438 9.707031 3.652344 9.660156 C 3.78125 9.613281 4.199219 9.46875 4.320312 9.210938 C 4.445312 8.953125 3.496094 8.859375 3.496094 8.859375 Z M 3.496094 8.859375 " fill-opacity="1" fill-rule="nonzero"/></g></g></g></g><g clip-path="url(#202a2e7cf8)"><g clip-path="url(#95c81e22ae)"><g clip-path="url(#fa7113100a)"><g clip-path="url(#e3a7059d64)"><path fill="#e6aea9" d="M 5.40625 7.914062 C 5.40625 7.914062 5.492188 7.585938 5.832031 7.566406 C 6.171875 7.542969 6.492188 7.554688 6.46875 7.691406 C 6.441406 7.828125 6.320312 8.117188 6.320312 8.246094 C 6.320312 8.375 5.78125 9.03125 4.546875 9.148438 C 3.308594 9.265625 5.40625 7.914062 5.40625 7.914062 Z M 5.40625 7.914062 " fill-opacity="1" fill-rule="nonzero"/></g></g></g></g><g clip-path="url(#cbf7f0a280)"><g clip-path="url(#dd2b89fbca)"><g clip-path="url(#2acad0accd)"><g clip-path="url(#c99100fe70)"><path fill="#b77574" d="M 4.121094 6.878906 C 4.121094 6.878906 4.445312 6.238281 4.832031 6.207031 C 5.222656 6.175781 5.347656 6.3125 5.402344 6.460938 C 5.457031 6.609375 5.625 6.675781 5.597656 6.9375 C 5.574219 7.148438 5.136719 8.375 4.355469 8.027344 C 3.578125 7.679688 4.121094 6.878906 4.121094 6.878906 Z M 4.121094 6.878906 " fill-opacity="1" fill-rule="nonzero"/></g></g></g></g><g clip-path="url(#9a714283cd)"><g clip-path="url(#26033bbb71)"><g clip-path="url(#f6e13bb6f5)"><g clip-path="url(#7c4edc8dae)"><path fill="#c48783" d="M 4.546875 9.148438 C 4.445312 9.210938 4.339844 9.226562 4.222656 9.195312 C 3.925781 9.109375 3.152344 8.828125 2.867188 8.089844 C 2.511719 7.167969 3.664062 7.429688 4.238281 7.65625 C 4.8125 7.886719 5.222656 7.496094 5.386719 7.820312 C 5.523438 8.09375 4.949219 8.894531 4.546875 9.148438 Z M 4.546875 9.148438 " fill-opacity="1" fill-rule="nonzero"/></g></g></g></g><g clip-path="url(#6b32ed1b03)"><g clip-path="url(#b8abf6fd27)"><g clip-path="url(#742e540096)"><g clip-path="url(#de9b84dd5b)"><path fill="#724947" d="M 5.5 9.640625 C 5.472656 9.644531 5.449219 9.636719 5.4375 9.609375 C 5.421875 9.582031 5.425781 9.558594 5.445312 9.539062 C 5.460938 9.523438 5.796875 9.160156 6.449219 8.789062 C 7.050781 8.453125 8.042969 8.046875 9.351562 8.050781 C 9.390625 8.050781 9.410156 8.074219 9.410156 8.113281 C 9.410156 8.152344 9.390625 8.171875 9.351562 8.171875 C 8.070312 8.171875 7.101562 8.566406 6.515625 8.898438 C 5.878906 9.253906 5.539062 9.621094 5.535156 9.621094 C 5.527344 9.632812 5.515625 9.640625 5.5 9.640625 Z M 5.5 9.640625 " fill-opacity="1" fill-rule="nonzero"/></g></g></g></g><g clip-path="url(#4a71638994)"><g clip-path="url(#cefbf93f82)"><g clip-path="url(#ca758809a3)"><g clip-path="url(#e46293464a)"><path fill="#e6aea9" d="M 9.578125 9.09375 C 9.578125 9.09375 9.597656 9.285156 9.476562 9.371094 C 9.355469 9.457031 9.054688 9.273438 9.054688 9.273438 L 9.019531 8.796875 L 9.230469 8.753906 Z M 9.578125 9.09375 " fill-opacity="1" fill-rule="nonzero"/></g></g></g></g><g clip-path="url(#6a6570bf9d)"><g clip-path="url(#f88c55ae74)"><g clip-path="url(#95c285fa24)"><g clip-path="url(#bdb4201382)"><path fill="#b77574" d="M 9.335938 8.339844 C 9.335938 8.339844 9.757812 8.507812 9.921875 8.445312 C 10.085938 8.382812 10.164062 8.25 10.144531 8.148438 C 10.121094 8.046875 10.027344 8.019531 10.027344 7.980469 C 10.027344 7.941406 10.152344 7.78125 9.972656 7.636719 C 9.796875 7.488281 9.5625 7.421875 9.371094 7.519531 C 9.179688 7.613281 9.335938 8.339844 9.335938 8.339844 Z M 9.335938 8.339844 " fill-opacity="1" fill-rule="nonzero"/></g></g></g></g><g clip-path="url(#882d150cf4)"><g clip-path="url(#e03a2793b6)"><g clip-path="url(#e25848a910)"><g clip-path="url(#05c024ae68)"><path fill="#e6aea9" d="M 9.378906 7.636719 C 9.378906 7.636719 9.554688 7.507812 9.503906 7.34375 C 9.453125 7.179688 9.3125 7.171875 9.265625 7.117188 C 9.21875 7.0625 9.042969 7.167969 8.996094 7.300781 C 8.953125 7.4375 8.816406 8.007812 8.816406 8.007812 Z M 9.378906 7.636719 " fill-opacity="1" fill-rule="nonzero"/><path fill="#e6aea9" d="M 8.890625 7.84375 C 8.890625 7.84375 9.089844 7.472656 8.980469 7.261719 C 8.871094 7.050781 8.757812 7.105469 8.675781 7.207031 C 8.59375 7.308594 8.601562 7.460938 8.570312 7.449219 C 8.539062 7.441406 8.5 7.464844 8.472656 7.523438 C 8.449219 7.585938 8.480469 7.742188 8.488281 7.8125 C 8.492188 7.878906 8.507812 8.101562 8.613281 8.195312 C 8.71875 8.289062 8.890625 7.84375 8.890625 7.84375 Z M 8.890625 7.84375 " fill-opacity="1" fill-rule="nonzero"/></g></g></g></g><g clip-path="url(#c31249e33f)"><g clip-path="url(#f6d91575a6)"><g clip-path="url(#9b3fd403cd)"><g clip-path="url(#95ecac56af)"><path fill="#e6aea9" d="M 9.089844 8.898438 C 9.089844 8.898438 9.234375 8.984375 9.199219 9.152344 C 9.164062 9.320312 9.117188 9.472656 9.054688 9.441406 C 8.996094 9.414062 8.871094 9.3125 8.808594 9.296875 C 8.746094 9.277344 8.503906 8.929688 8.613281 8.3125 C 8.722656 7.695312 9.089844 8.898438 9.089844 8.898438 Z M 9.089844 8.898438 " fill-opacity="1" fill-rule="nonzero"/></g></g></g></g><g clip-path="url(#7cebcf8c49)"><g clip-path="url(#cdaf72b8f5)"><g clip-path="url(#6313ac31e0)"><g clip-path="url(#d47a3e4d4d)"><path fill="#b77574" d="M 9.753906 8.414062 C 9.753906 8.414062 10.019531 8.65625 9.984375 8.847656 C 9.949219 9.042969 9.863281 9.085938 9.785156 9.089844 C 9.707031 9.097656 9.65625 9.171875 9.53125 9.121094 C 9.433594 9.082031 8.902344 8.703125 9.175781 8.371094 C 9.445312 8.039062 9.753906 8.414062 9.753906 8.414062 Z M 9.753906 8.414062 " fill-opacity="1" fill-rule="nonzero"/></g></g></g></g><g clip-path="url(#26fecf0fad)"><g clip-path="url(#146c44791a)"><g clip-path="url(#56c420544c)"><g clip-path="url(#d6d22884ec)"><path fill="#c48783" d="M 8.613281 8.3125 C 8.597656 8.257812 8.601562 8.203125 8.632812 8.152344 C 8.710938 8.015625 8.949219 7.679688 9.339844 7.640625 C 9.832031 7.589844 9.554688 8.117188 9.367188 8.363281 C 9.179688 8.613281 9.3125 8.863281 9.136719 8.898438 C 8.988281 8.929688 8.679688 8.542969 8.613281 8.3125 Z M 8.613281 8.3125 " fill-opacity="1" fill-rule="nonzero"/></g></g></g></g><g clip-path="url(#a038b4091a)"><g clip-path="url(#65c668b28f)"><g clip-path="url(#054aa2fc7b)"><g clip-path="url(#a72c5b64cc)"><path fill="#724947" d="M 4.085938 12.089844 C 4.085938 12.089844 4.742188 12.320312 5.117188 11.84375 C 5.488281 11.371094 5.746094 11.253906 5.746094 11.253906 C 5.746094 11.253906 4.15625 10.898438 4.085938 12.089844 Z M 4.085938 12.089844 " fill-opacity="1" fill-rule="nonzero"/></g></g></g></g><g clip-path="url(#1999a1d48f)"><g clip-path="url(#c5ace59993)"><g clip-path="url(#ca85b86e46)"><g clip-path="url(#0c81e15881)"><path fill="#724947" d="M 4.964844 10.339844 C 4.964844 10.339844 5.464844 10.597656 5.8125 10.257812 C 6.160156 9.921875 6.378906 9.855469 6.378906 9.855469 C 6.378906 9.855469 5.152344 9.398438 4.964844 10.339844 Z M 4.964844 10.339844 " fill-opacity="1" fill-rule="nonzero"/></g></g></g></g><g clip-path="url(#4a7cfa0e5e)"><g clip-path="url(#18c8600bee)"><g clip-path="url(#a817277cb9)"><g clip-path="url(#95be5ed0f0)"><path fill="#724947" d="M 4.371094 11.136719 C 4.371094 11.136719 3.964844 10.921875 4.023438 10.527344 C 4.078125 10.132812 4.019531 9.957031 4.019531 9.957031 C 4.019531 9.957031 4.90625 10.5625 4.371094 11.136719 Z M 4.371094 11.136719 " fill-opacity="1" fill-rule="nonzero"/></g></g></g></g><g clip-path="url(#605eda1ef7)"><g clip-path="url(#5a9df5364e)"><g clip-path="url(#63d3b3a806)"><g clip-path="url(#cfd1daf9d5)"><path fill="#724947" d="M 7.15625 8.082031 C 7.15625 8.082031 6.796875 7.785156 6.933594 7.40625 C 7.070312 7.023438 7.046875 6.835938 7.046875 6.835938 C 7.046875 6.835938 7.804688 7.621094 7.15625 8.082031 Z M 7.15625 8.082031 " fill-opacity="1" fill-rule="nonzero"/></g></g></g></g><g clip-path="url(#21985e7587)"><g clip-path="url(#151e308f0e)"><g clip-path="url(#4190c00b07)"><g clip-path="url(#f7e0ae5568)"><path fill="#724947" d="M 7.152344 8.601562 C 7.152344 8.601562 7.425781 8.984375 7.8125 8.871094 C 8.195312 8.753906 8.382812 8.789062 8.382812 8.789062 C 8.382812 8.789062 7.648438 7.980469 7.152344 8.601562 Z M 7.152344 8.601562 " fill-opacity="1" fill-rule="nonzero"/></g></g></g></g><g clip-path="url(#af7b91b1f7)"><g clip-path="url(#72f4e6bee5)"><g clip-path="url(#cc64a8d67f)"><g clip-path="url(#88baa11c4a)"><path fill="#724947" d="M 7.84375 9.546875 C 7.863281 9.675781 7.808594 9.75 7.679688 9.769531 C 7.550781 9.789062 7.476562 9.734375 7.460938 9.605469 C 7.441406 9.472656 7.496094 9.398438 7.625 9.378906 C 7.753906 9.363281 7.828125 9.417969 7.84375 9.546875 Z M 7.84375 9.546875 " fill-opacity="1" fill-rule="nonzero"/></g></g></g></g><g clip-path="url(#807d75013a)"><g clip-path="url(#4ac3176bb3)"><g clip-path="url(#08b6149102)"><g clip-path="url(#541b5e49b5)"><path fill="#724947" d="M 3.3125 11.726562 C 3.242188 11.738281 3.179688 11.71875 3.121094 11.679688 C 3.0625 11.636719 3.03125 11.578125 3.019531 11.507812 C 3.011719 11.4375 3.027344 11.371094 3.070312 11.316406 C 3.109375 11.257812 3.167969 11.222656 3.238281 11.214844 C 3.308594 11.203125 3.371094 11.21875 3.429688 11.261719 C 3.484375 11.304688 3.519531 11.363281 3.53125 11.433594 C 3.539062 11.503906 3.523438 11.566406 3.480469 11.625 C 3.4375 11.683594 3.382812 11.714844 3.3125 11.726562 Z M 3.253906 11.335938 C 3.167969 11.351562 3.128906 11.402344 3.144531 11.488281 C 3.15625 11.578125 3.207031 11.617188 3.292969 11.605469 C 3.382812 11.589844 3.421875 11.539062 3.40625 11.453125 C 3.394531 11.363281 3.34375 11.324219 3.253906 11.335938 Z M 3.253906 11.335938 " fill-opacity="1" fill-rule="nonzero"/></g></g></g></g><g clip-path="url(#2d3ea486be)"><g clip-path="url(#e2a74894f7)"><g clip-path="url(#6b1c5413cc)"><g clip-path="url(#eed6a2576a)"><path fill="#724947" d="M 6.394531 11.066406 C 6.324219 11.078125 6.261719 11.0625 6.203125 11.019531 C 6.148438 10.976562 6.113281 10.917969 6.101562 10.847656 C 6.09375 10.777344 6.109375 10.710938 6.152344 10.65625 C 6.191406 10.597656 6.25 10.5625 6.320312 10.554688 C 6.390625 10.542969 6.453125 10.558594 6.511719 10.601562 C 6.570312 10.644531 6.601562 10.703125 6.613281 10.773438 C 6.621094 10.84375 6.605469 10.910156 6.5625 10.964844 C 6.523438 11.023438 6.464844 11.058594 6.394531 11.066406 Z M 6.339844 10.679688 C 6.25 10.691406 6.210938 10.742188 6.226562 10.832031 C 6.238281 10.917969 6.289062 10.957031 6.378906 10.945312 C 6.464844 10.929688 6.503906 10.878906 6.488281 10.792969 C 6.476562 10.703125 6.425781 10.664062 6.339844 10.679688 Z M 6.339844 10.679688 " fill-opacity="1" fill-rule="nonzero"/></g></g></g></g><g clip-path="url(#c562f5f5d2)"><g clip-path="url(#8ea8b9b9d0)"><g clip-path="url(#1d83ec8e52)"><g clip-path="url(#9b196cca9e)"><path fill="#724947" d="M 4.710938 12.683594 C 4.71875 12.757812 4.6875 12.800781 4.613281 12.8125 C 4.539062 12.824219 4.496094 12.792969 4.484375 12.71875 C 4.476562 12.640625 4.507812 12.597656 4.582031 12.585938 C 4.65625 12.578125 4.699219 12.609375 4.710938 12.683594 Z M 4.710938 12.683594 " fill-opacity="1" fill-rule="nonzero"/></g></g></g></g><g clip-path="url(#f8aaba931f)"><g clip-path="url(#23a87844e4)"><g clip-path="url(#98f0b3ccfb)"><g clip-path="url(#68f71fc880)"><path fill="#724947" d="M 4.871094 5.671875 C 4.878906 5.746094 4.847656 5.789062 4.773438 5.800781 C 4.699219 5.808594 4.65625 5.777344 4.644531 5.703125 C 4.636719 5.628906 4.667969 5.585938 4.742188 5.574219 C 4.816406 5.5625 4.859375 5.59375 4.871094 5.671875 Z M 4.871094 5.671875 " fill-opacity="1" fill-rule="nonzero"/></g></g></g></g><g clip-path="url(#0f0870c0c1)"><g clip-path="url(#4fa4949ced)"><g clip-path="url(#8afd1a016f)"><g clip-path="url(#1eb0ad76f5)"><path fill="#724947" d="M 11.339844 7.71875 C 11.351562 7.792969 11.316406 7.835938 11.242188 7.847656 C 11.167969 7.859375 11.125 7.828125 11.113281 7.75 C 11.105469 7.675781 11.136719 7.632812 11.210938 7.621094 C 11.285156 7.609375 11.328125 7.644531 11.339844 7.71875 Z M 11.339844 7.71875 " fill-opacity="1" fill-rule="nonzero"/></g></g></g></g></g></g></g><g transform="matrix(1, 0, 0, 1, 8, 9)"><g clip-path="url(#ad874ea020)"><g fill="#724947" fill-opacity="0.4"><g transform="translate(2.271826, 12.481771)"><g><path d="M 2.75 0.28125 C 2.40625 0.320312 2.066406 0.296875 1.734375 0.203125 C 1.398438 0.117188 1.09375 -0.0234375 0.8125 -0.234375 C 0.53125 -0.453125 0.296875 -0.71875 0.109375 -1.03125 C -0.078125 -1.351562 -0.191406 -1.726562 -0.234375 -2.15625 C -0.265625 -2.488281 -0.238281 -2.8125 -0.15625 -3.125 C -0.0820312 -3.445312 0.0390625 -3.738281 0.21875 -4 C 0.40625 -4.269531 0.632812 -4.488281 0.90625 -4.65625 C 1.175781 -4.820312 1.488281 -4.921875 1.84375 -4.953125 C 2.164062 -4.992188 2.457031 -4.96875 2.71875 -4.875 C 2.976562 -4.789062 3.1875 -4.65625 3.34375 -4.46875 C 3.5 -4.28125 3.59375 -4.054688 3.625 -3.796875 C 3.644531 -3.535156 3.597656 -3.285156 3.484375 -3.046875 C 3.378906 -2.804688 3.210938 -2.609375 2.984375 -2.453125 C 2.753906 -2.296875 2.484375 -2.203125 2.171875 -2.171875 C 2.003906 -2.148438 1.878906 -2.164062 1.796875 -2.21875 C 1.710938 -2.269531 1.675781 -2.332031 1.6875 -2.40625 C 1.707031 -2.476562 1.785156 -2.523438 1.921875 -2.546875 C 2.160156 -2.585938 2.347656 -2.71875 2.484375 -2.9375 C 2.617188 -3.164062 2.675781 -3.414062 2.65625 -3.6875 C 2.625 -3.96875 2.523438 -4.164062 2.359375 -4.28125 C 2.203125 -4.394531 2.007812 -4.441406 1.78125 -4.421875 C 1.507812 -4.390625 1.265625 -4.265625 1.046875 -4.046875 C 0.835938 -3.835938 0.675781 -3.570312 0.5625 -3.25 C 0.445312 -2.925781 0.410156 -2.585938 0.453125 -2.234375 C 0.503906 -1.773438 0.617188 -1.40625 0.796875 -1.125 C 0.984375 -0.851562 1.210938 -0.660156 1.484375 -0.546875 C 1.753906 -0.429688 2.046875 -0.394531 2.359375 -0.4375 C 2.648438 -0.46875 2.921875 -0.570312 3.171875 -0.75 C 3.429688 -0.9375 3.65625 -1.171875 3.84375 -1.453125 C 4.039062 -1.734375 4.1875 -2.050781 4.28125 -2.40625 C 4.375 -2.769531 4.398438 -3.144531 4.359375 -3.53125 C 4.316406 -3.9375 4.253906 -4.285156 4.171875 -4.578125 C 4.085938 -4.867188 4.003906 -5.148438 3.921875 -5.421875 C 3.554688 -5.398438 3.171875 -5.425781 2.765625 -5.5 C 2.359375 -5.570312 1.972656 -5.691406 1.609375 -5.859375 C 1.242188 -6.023438 0.941406 -6.234375 0.703125 -6.484375 C 0.460938 -6.734375 0.320312 -7.035156 0.28125 -7.390625 C 0.257812 -7.597656 0.269531 -7.78125 0.3125 -7.9375 C 0.363281 -8.101562 0.421875 -8.234375 0.484375 -8.328125 C 0.554688 -8.421875 0.617188 -8.472656 0.671875 -8.484375 C 0.742188 -8.492188 0.785156 -8.441406 0.796875 -8.328125 C 0.835938 -7.992188 0.945312 -7.679688 1.125 -7.390625 C 1.300781 -7.109375 1.53125 -6.863281 1.8125 -6.65625 C 2.09375 -6.445312 2.398438 -6.285156 2.734375 -6.171875 C 3.078125 -6.054688 3.425781 -5.992188 3.78125 -5.984375 C 3.769531 -6.035156 3.757812 -6.085938 3.75 -6.140625 C 3.75 -6.191406 3.742188 -6.25 3.734375 -6.3125 C 3.691406 -6.757812 3.707031 -7.140625 3.78125 -7.453125 C 3.863281 -7.773438 3.984375 -8.039062 4.140625 -8.25 C 4.304688 -8.457031 4.488281 -8.613281 4.6875 -8.71875 C 4.882812 -8.820312 5.070312 -8.882812 5.25 -8.90625 C 5.65625 -8.945312 5.988281 -8.851562 6.25 -8.625 C 6.519531 -8.394531 6.675781 -8.097656 6.71875 -7.734375 C 6.738281 -7.503906 6.6875 -7.25 6.5625 -6.96875 C 6.445312 -6.695312 6.257812 -6.441406 6 -6.203125 C 5.75 -5.960938 5.421875 -5.773438 5.015625 -5.640625 C 5.179688 -5.265625 5.347656 -4.898438 5.515625 -4.546875 C 5.691406 -4.191406 5.800781 -3.816406 5.84375 -3.421875 C 5.894531 -2.972656 5.863281 -2.539062 5.75 -2.125 C 5.632812 -1.707031 5.445312 -1.328125 5.1875 -0.984375 C 4.925781 -0.640625 4.59375 -0.351562 4.1875 -0.125 C 3.78125 0.09375 3.300781 0.226562 2.75 0.28125 Z M 4.640625 -6.90625 C 4.671875 -6.65625 4.722656 -6.414062 4.796875 -6.1875 C 5.210938 -6.332031 5.535156 -6.546875 5.765625 -6.828125 C 5.992188 -7.117188 6.09375 -7.40625 6.0625 -7.6875 C 6.039062 -7.863281 5.972656 -8.003906 5.859375 -8.109375 C 5.742188 -8.222656 5.597656 -8.269531 5.421875 -8.25 C 5.160156 -8.226562 4.953125 -8.09375 4.796875 -7.84375 C 4.648438 -7.59375 4.597656 -7.28125 4.640625 -6.90625 Z M 4.640625 -6.90625 "/></g></g></g><g fill="#724947" fill-opacity="0.4"><g transform="translate(8.99994, 11.750864)"><g><path d="M 2.75 0.28125 C 2.40625 0.320312 2.066406 0.296875 1.734375 0.203125 C 1.398438 0.117188 1.09375 -0.0234375 0.8125 -0.234375 C 0.53125 -0.453125 0.296875 -0.71875 0.109375 -1.03125 C -0.078125 -1.351562 -0.191406 -1.726562 -0.234375 -2.15625 C -0.265625 -2.488281 -0.238281 -2.8125 -0.15625 -3.125 C -0.0820312 -3.445312 0.0390625 -3.738281 0.21875 -4 C 0.40625 -4.269531 0.632812 -4.488281 0.90625 -4.65625 C 1.175781 -4.820312 1.488281 -4.921875 1.84375 -4.953125 C 2.164062 -4.992188 2.457031 -4.96875 2.71875 -4.875 C 2.976562 -4.789062 3.1875 -4.65625 3.34375 -4.46875 C 3.5 -4.28125 3.59375 -4.054688 3.625 -3.796875 C 3.644531 -3.535156 3.597656 -3.285156 3.484375 -3.046875 C 3.378906 -2.804688 3.210938 -2.609375 2.984375 -2.453125 C 2.753906 -2.296875 2.484375 -2.203125 2.171875 -2.171875 C 2.003906 -2.148438 1.878906 -2.164062 1.796875 -2.21875 C 1.710938 -2.269531 1.675781 -2.332031 1.6875 -2.40625 C 1.707031 -2.476562 1.785156 -2.523438 1.921875 -2.546875 C 2.160156 -2.585938 2.347656 -2.71875 2.484375 -2.9375 C 2.617188 -3.164062 2.675781 -3.414062 2.65625 -3.6875 C 2.625 -3.96875 2.523438 -4.164062 2.359375 -4.28125 C 2.203125 -4.394531 2.007812 -4.441406 1.78125 -4.421875 C 1.507812 -4.390625 1.265625 -4.265625 1.046875 -4.046875 C 0.835938 -3.835938 0.675781 -3.570312 0.5625 -3.25 C 0.445312 -2.925781 0.410156 -2.585938 0.453125 -2.234375 C 0.503906 -1.773438 0.617188 -1.40625 0.796875 -1.125 C 0.984375 -0.851562 1.210938 -0.660156 1.484375 -0.546875 C 1.753906 -0.429688 2.046875 -0.394531 2.359375 -0.4375 C 2.648438 -0.46875 2.921875 -0.570312 3.171875 -0.75 C 3.429688 -0.9375 3.65625 -1.171875 3.84375 -1.453125 C 4.039062 -1.734375 4.1875 -2.050781 4.28125 -2.40625 C 4.375 -2.769531 4.398438 -3.144531 4.359375 -3.53125 C 4.316406 -3.9375 4.253906 -4.285156 4.171875 -4.578125 C 4.085938 -4.867188 4.003906 -5.148438 3.921875 -5.421875 C 3.554688 -5.398438 3.171875 -5.425781 2.765625 -5.5 C 2.359375 -5.570312 1.972656 -5.691406 1.609375 -5.859375 C 1.242188 -6.023438 0.941406 -6.234375 0.703125 -6.484375 C 0.460938 -6.734375 0.320312 -7.035156 0.28125 -7.390625 C 0.257812 -7.597656 0.269531 -7.78125 0.3125 -7.9375 C 0.363281 -8.101562 0.421875 -8.234375 0.484375 -8.328125 C 0.554688 -8.421875 0.617188 -8.472656 0.671875 -8.484375 C 0.742188 -8.492188 0.785156 -8.441406 0.796875 -8.328125 C 0.835938 -7.992188 0.945312 -7.679688 1.125 -7.390625 C 1.300781 -7.109375 1.53125 -6.863281 1.8125 -6.65625 C 2.09375 -6.445312 2.398438 -6.285156 2.734375 -6.171875 C 3.078125 -6.054688 3.425781 -5.992188 3.78125 -5.984375 C 3.769531 -6.035156 3.757812 -6.085938 3.75 -6.140625 C 3.75 -6.191406 3.742188 -6.25 3.734375 -6.3125 C 3.691406 -6.757812 3.707031 -7.140625 3.78125 -7.453125 C 3.863281 -7.773438 3.984375 -8.039062 4.140625 -8.25 C 4.304688 -8.457031 4.488281 -8.613281 4.6875 -8.71875 C 4.882812 -8.820312 5.070312 -8.882812 5.25 -8.90625 C 5.65625 -8.945312 5.988281 -8.851562 6.25 -8.625 C 6.519531 -8.394531 6.675781 -8.097656 6.71875 -7.734375 C 6.738281 -7.503906 6.6875 -7.25 6.5625 -6.96875 C 6.445312 -6.695312 6.257812 -6.441406 6 -6.203125 C 5.75 -5.960938 5.421875 -5.773438 5.015625 -5.640625 C 5.179688 -5.265625 5.347656 -4.898438 5.515625 -4.546875 C 5.691406 -4.191406 5.800781 -3.816406 5.84375 -3.421875 C 5.894531 -2.972656 5.863281 -2.539062 5.75 -2.125 C 5.632812 -1.707031 5.445312 -1.328125 5.1875 -0.984375 C 4.925781 -0.640625 4.59375 -0.351562 4.1875 -0.125 C 3.78125 0.09375 3.300781 0.226562 2.75 0.28125 Z M 4.640625 -6.90625 C 4.671875 -6.65625 4.722656 -6.414062 4.796875 -6.1875 C 5.210938 -6.332031 5.535156 -6.546875 5.765625 -6.828125 C 5.992188 -7.117188 6.09375 -7.40625 6.0625 -7.6875 C 6.039062 -7.863281 5.972656 -8.003906 5.859375 -8.109375 C 5.742188 -8.222656 5.597656 -8.269531 5.421875 -8.25 C 5.160156 -8.226562 4.953125 -8.09375 4.796875 -7.84375 C 4.648438 -7.59375 4.597656 -7.28125 4.640625 -6.90625 Z M 4.640625 -6.90625 "/></g></g></g><g clip-path="url(#a6cfd69eeb)"><g fill="#863030" fill-opacity="1"><g transform="translate(1.823822, 12.121567)"><g><path d="M 2.75 0.28125 C 2.40625 0.320312 2.066406 0.296875 1.734375 0.203125 C 1.398438 0.117188 1.09375 -0.0234375 0.8125 -0.234375 C 0.53125 -0.453125 0.296875 -0.71875 0.109375 -1.03125 C -0.078125 -1.351562 -0.191406 -1.726562 -0.234375 -2.15625 C -0.265625 -2.488281 -0.238281 -2.8125 -0.15625 -3.125 C -0.0820312 -3.445312 0.0390625 -3.738281 0.21875 -4 C 0.40625 -4.269531 0.632812 -4.488281 0.90625 -4.65625 C 1.175781 -4.820312 1.488281 -4.921875 1.84375 -4.953125 C 2.164062 -4.992188 2.457031 -4.96875 2.71875 -4.875 C 2.976562 -4.789062 3.1875 -4.65625 3.34375 -4.46875 C 3.5 -4.28125 3.59375 -4.054688 3.625 -3.796875 C 3.644531 -3.535156 3.597656 -3.285156 3.484375 -3.046875 C 3.378906 -2.804688 3.210938 -2.609375 2.984375 -2.453125 C 2.753906 -2.296875 2.484375 -2.203125 2.171875 -2.171875 C 2.003906 -2.148438 1.878906 -2.164062 1.796875 -2.21875 C 1.710938 -2.269531 1.675781 -2.332031 1.6875 -2.40625 C 1.707031 -2.476562 1.785156 -2.523438 1.921875 -2.546875 C 2.160156 -2.585938 2.347656 -2.71875 2.484375 -2.9375 C 2.617188 -3.164062 2.675781 -3.414062 2.65625 -3.6875 C 2.625 -3.96875 2.523438 -4.164062 2.359375 -4.28125 C 2.203125 -4.394531 2.007812 -4.441406 1.78125 -4.421875 C 1.507812 -4.390625 1.265625 -4.265625 1.046875 -4.046875 C 0.835938 -3.835938 0.675781 -3.570312 0.5625 -3.25 C 0.445312 -2.925781 0.410156 -2.585938 0.453125 -2.234375 C 0.503906 -1.773438 0.617188 -1.40625 0.796875 -1.125 C 0.984375 -0.851562 1.210938 -0.660156 1.484375 -0.546875 C 1.753906 -0.429688 2.046875 -0.394531 2.359375 -0.4375 C 2.648438 -0.46875 2.921875 -0.570312 3.171875 -0.75 C 3.429688 -0.9375 3.65625 -1.171875 3.84375 -1.453125 C 4.039062 -1.734375 4.1875 -2.050781 4.28125 -2.40625 C 4.375 -2.769531 4.398438 -3.144531 4.359375 -3.53125 C 4.316406 -3.9375 4.253906 -4.285156 4.171875 -4.578125 C 4.085938 -4.867188 4.003906 -5.148438 3.921875 -5.421875 C 3.554688 -5.398438 3.171875 -5.425781 2.765625 -5.5 C 2.359375 -5.570312 1.972656 -5.691406 1.609375 -5.859375 C 1.242188 -6.023438 0.941406 -6.234375 0.703125 -6.484375 C 0.460938 -6.734375 0.320312 -7.035156 0.28125 -7.390625 C 0.257812 -7.597656 0.269531 -7.78125 0.3125 -7.9375 C 0.363281 -8.101562 0.421875 -8.234375 0.484375 -8.328125 C 0.554688 -8.421875 0.617188 -8.472656 0.671875 -8.484375 C 0.742188 -8.492188 0.785156 -8.441406 0.796875 -8.328125 C 0.835938 -7.992188 0.945312 -7.679688 1.125 -7.390625 C 1.300781 -7.109375 1.53125 -6.863281 1.8125 -6.65625 C 2.09375 -6.445312 2.398438 -6.285156 2.734375 -6.171875 C 3.078125 -6.054688 3.425781 -5.992188 3.78125 -5.984375 C 3.769531 -6.035156 3.757812 -6.085938 3.75 -6.140625 C 3.75 -6.191406 3.742188 -6.25 3.734375 -6.3125 C 3.691406 -6.757812 3.707031 -7.140625 3.78125 -7.453125 C 3.863281 -7.773438 3.984375 -8.039062 4.140625 -8.25 C 4.304688 -8.457031 4.488281 -8.613281 4.6875 -8.71875 C 4.882812 -8.820312 5.070312 -8.882812 5.25 -8.90625 C 5.65625 -8.945312 5.988281 -8.851562 6.25 -8.625 C 6.519531 -8.394531 6.675781 -8.097656 6.71875 -7.734375 C 6.738281 -7.503906 6.6875 -7.25 6.5625 -6.96875 C 6.445312 -6.695312 6.257812 -6.441406 6 -6.203125 C 5.75 -5.960938 5.421875 -5.773438 5.015625 -5.640625 C 5.179688 -5.265625 5.347656 -4.898438 5.515625 -4.546875 C 5.691406 -4.191406 5.800781 -3.816406 5.84375 -3.421875 C 5.894531 -2.972656 5.863281 -2.539062 5.75 -2.125 C 5.632812 -1.707031 5.445312 -1.328125 5.1875 -0.984375 C 4.925781 -0.640625 4.59375 -0.351562 4.1875 -0.125 C 3.78125 0.09375 3.300781 0.226562 2.75 0.28125 Z M 4.640625 -6.90625 C 4.671875 -6.65625 4.722656 -6.414062 4.796875 -6.1875 C 5.210938 -6.332031 5.535156 -6.546875 5.765625 -6.828125 C 5.992188 -7.117188 6.09375 -7.40625 6.0625 -7.6875 C 6.039062 -7.863281 5.972656 -8.003906 5.859375 -8.109375 C 5.742188 -8.222656 5.597656 -8.269531 5.421875 -8.25 C 5.160156 -8.226562 4.953125 -8.09375 4.796875 -7.84375 C 4.648438 -7.59375 4.597656 -7.28125 4.640625 -6.90625 Z M 4.640625 -6.90625 "/></g></g></g></g><g fill="#863030" fill-opacity="1"><g transform="translate(8.551936, 11.39066)"><g><path d="M 2.75 0.28125 C 2.40625 0.320312 2.066406 0.296875 1.734375 0.203125 C 1.398438 0.117188 1.09375 -0.0234375 0.8125 -0.234375 C 0.53125 -0.453125 0.296875 -0.71875 0.109375 -1.03125 C -0.078125 -1.351562 -0.191406 -1.726562 -0.234375 -2.15625 C -0.265625 -2.488281 -0.238281 -2.8125 -0.15625 -3.125 C -0.0820312 -3.445312 0.0390625 -3.738281 0.21875 -4 C 0.40625 -4.269531 0.632812 -4.488281 0.90625 -4.65625 C 1.175781 -4.820312 1.488281 -4.921875 1.84375 -4.953125 C 2.164062 -4.992188 2.457031 -4.96875 2.71875 -4.875 C 2.976562 -4.789062 3.1875 -4.65625 3.34375 -4.46875 C 3.5 -4.28125 3.59375 -4.054688 3.625 -3.796875 C 3.644531 -3.535156 3.597656 -3.285156 3.484375 -3.046875 C 3.378906 -2.804688 3.210938 -2.609375 2.984375 -2.453125 C 2.753906 -2.296875 2.484375 -2.203125 2.171875 -2.171875 C 2.003906 -2.148438 1.878906 -2.164062 1.796875 -2.21875 C 1.710938 -2.269531 1.675781 -2.332031 1.6875 -2.40625 C 1.707031 -2.476562 1.785156 -2.523438 1.921875 -2.546875 C 2.160156 -2.585938 2.347656 -2.71875 2.484375 -2.9375 C 2.617188 -3.164062 2.675781 -3.414062 2.65625 -3.6875 C 2.625 -3.96875 2.523438 -4.164062 2.359375 -4.28125 C 2.203125 -4.394531 2.007812 -4.441406 1.78125 -4.421875 C 1.507812 -4.390625 1.265625 -4.265625 1.046875 -4.046875 C 0.835938 -3.835938 0.675781 -3.570312 0.5625 -3.25 C 0.445312 -2.925781 0.410156 -2.585938 0.453125 -2.234375 C 0.503906 -1.773438 0.617188 -1.40625 0.796875 -1.125 C 0.984375 -0.851562 1.210938 -0.660156 1.484375 -0.546875 C 1.753906 -0.429688 2.046875 -0.394531 2.359375 -0.4375 C 2.648438 -0.46875 2.921875 -0.570312 3.171875 -0.75 C 3.429688 -0.9375 3.65625 -1.171875 3.84375 -1.453125 C 4.039062 -1.734375 4.1875 -2.050781 4.28125 -2.40625 C 4.375 -2.769531 4.398438 -3.144531 4.359375 -3.53125 C 4.316406 -3.9375 4.253906 -4.285156 4.171875 -4.578125 C 4.085938 -4.867188 4.003906 -5.148438 3.921875 -5.421875 C 3.554688 -5.398438 3.171875 -5.425781 2.765625 -5.5 C 2.359375 -5.570312 1.972656 -5.691406 1.609375 -5.859375 C 1.242188 -6.023438 0.941406 -6.234375 0.703125 -6.484375 C 0.460938 -6.734375 0.320312 -7.035156 0.28125 -7.390625 C 0.257812 -7.597656 0.269531 -7.78125 0.3125 -7.9375 C 0.363281 -8.101562 0.421875 -8.234375 0.484375 -8.328125 C 0.554688 -8.421875 0.617188 -8.472656 0.671875 -8.484375 C 0.742188 -8.492188 0.785156 -8.441406 0.796875 -8.328125 C 0.835938 -7.992188 0.945312 -7.679688 1.125 -7.390625 C 1.300781 -7.109375 1.53125 -6.863281 1.8125 -6.65625 C 2.09375 -6.445312 2.398438 -6.285156 2.734375 -6.171875 C 3.078125 -6.054688 3.425781 -5.992188 3.78125 -5.984375 C 3.769531 -6.035156 3.757812 -6.085938 3.75 -6.140625 C 3.75 -6.191406 3.742188 -6.25 3.734375 -6.3125 C 3.691406 -6.757812 3.707031 -7.140625 3.78125 -7.453125 C 3.863281 -7.773438 3.984375 -8.039062 4.140625 -8.25 C 4.304688 -8.457031 4.488281 -8.613281 4.6875 -8.71875 C 4.882812 -8.820312 5.070312 -8.882812 5.25 -8.90625 C 5.65625 -8.945312 5.988281 -8.851562 6.25 -8.625 C 6.519531 -8.394531 6.675781 -8.097656 6.71875 -7.734375 C 6.738281 -7.503906 6.6875 -7.25 6.5625 -6.96875 C 6.445312 -6.695312 6.257812 -6.441406 6 -6.203125 C 5.75 -5.960938 5.421875 -5.773438 5.015625 -5.640625 C 5.179688 -5.265625 5.347656 -4.898438 5.515625 -4.546875 C 5.691406 -4.191406 5.800781 -3.816406 5.84375 -3.421875 C 5.894531 -2.972656 5.863281 -2.539062 5.75 -2.125 C 5.632812 -1.707031 5.445312 -1.328125 5.1875 -0.984375 C 4.925781 -0.640625 4.59375 -0.351562 4.1875 -0.125 C 3.78125 0.09375 3.300781 0.226562 2.75 0.28125 Z M 4.640625 -6.90625 C 4.671875 -6.65625 4.722656 -6.414062 4.796875 -6.1875 C 5.210938 -6.332031 5.535156 -6.546875 5.765625 -6.828125 C 5.992188 -7.117188 6.09375 -7.40625 6.0625 -7.6875 C 6.039062 -7.863281 5.972656 -8.003906 5.859375 -8.109375 C 5.742188 -8.222656 5.597656 -8.269531 5.421875 -8.25 C 5.160156 -8.226562 4.953125 -8.09375 4.796875 -7.84375 C 4.648438 -7.59375 4.597656 -7.28125 4.640625 -6.90625 Z M 4.640625 -6.90625 "/></g></g></g></g></g><g transform="matrix(1, 0, 0, 1, 10, 21)"><g clip-path="url(#354284a83d)"><g clip-path="url(#34b8809f16)"><g fill="#863030" fill-opacity="1"><g transform="translate(0.324548, 3.207441)"><g><path d="M 0.171875 -0.40625 L 0.203125 -0.109375 L 0.59375 -0.140625 L 0.609375 -0.0625 L 0.125 -0.015625 L 0.046875 -0.8125 L 0.53125 -0.859375 L 0.53125 -0.78125 L 0.140625 -0.75 L 0.171875 -0.484375 L 0.515625 -0.515625 L 0.515625 -0.4375 Z M 0.171875 -0.40625 "/></g></g><g transform="translate(0.988178, 3.135759)"><g><path d="M 0.140625 -0.828125 L 0.203125 -0.109375 L 0.578125 -0.140625 L 0.59375 -0.0625 L 0.125 -0.015625 L 0.046875 -0.8125 Z M 0.140625 -0.828125 "/></g></g><g transform="translate(1.610969, 3.068488)"><g><path d="M 0.171875 -0.40625 L 0.203125 -0.109375 L 0.59375 -0.140625 L 0.609375 -0.0625 L 0.125 -0.015625 L 0.046875 -0.8125 L 0.53125 -0.859375 L 0.53125 -0.78125 L 0.140625 -0.75 L 0.171875 -0.484375 L 0.515625 -0.515625 L 0.515625 -0.4375 Z M 0.171875 -0.40625 "/></g></g><g transform="translate(2.274598, 2.996805)"><g><path d="M 0.4375 -0.046875 L 0.3125 -0.03125 L -0.046875 -0.796875 L 0.0625 -0.8125 L 0.34375 -0.140625 L 0.359375 -0.15625 L 0.53125 -0.859375 L 0.625 -0.875 Z M 0.4375 -0.046875 "/></g></g><g transform="translate(3.00862, 2.917519)"><g><path d="M 0.71875 -0.078125 L 0.609375 -0.0625 L 0.515625 -0.28125 L 0.171875 -0.234375 L 0.125 -0.015625 L 0.03125 0 L 0.234375 -0.828125 L 0.359375 -0.84375 Z M 0.28125 -0.734375 L 0.203125 -0.328125 L 0.484375 -0.359375 L 0.296875 -0.75 Z M 0.28125 -0.734375 "/></g></g><g transform="translate(3.746942, 2.837769)"><g><path d="M 0.546875 -0.859375 L 0.546875 -0.78125 L 0.296875 -0.765625 L 0.375 -0.046875 L 0.28125 -0.03125 L 0.203125 -0.75 L -0.046875 -0.71875 L -0.046875 -0.796875 Z M 0.546875 -0.859375 "/></g></g><g transform="translate(4.38854, 2.768466)"><g><path d="M 0.171875 -0.40625 L 0.203125 -0.109375 L 0.59375 -0.140625 L 0.609375 -0.0625 L 0.125 -0.015625 L 0.046875 -0.8125 L 0.53125 -0.859375 L 0.53125 -0.78125 L 0.140625 -0.75 L 0.171875 -0.484375 L 0.515625 -0.515625 L 0.515625 -0.4375 Z M 0.171875 -0.40625 "/></g></g><g transform="translate(5.052169, 2.696784)"><g/></g><g transform="translate(5.32192, 2.667646)"><g><path d="M 0.390625 -0.046875 L 0.296875 -0.03125 L 0.265625 -0.34375 L -0.0625 -0.796875 L 0.046875 -0.8125 L 0.28125 -0.453125 L 0.296875 -0.453125 L 0.484375 -0.859375 L 0.578125 -0.875 L 0.359375 -0.359375 Z M 0.390625 -0.046875 "/></g></g><g transform="translate(5.997371, 2.594687)"><g><path d="M 0.4375 -0.03125 C 0.363281 -0.0195312 0.296875 -0.0234375 0.234375 -0.046875 C 0.179688 -0.078125 0.132812 -0.125 0.09375 -0.1875 C 0.0625 -0.25 0.0390625 -0.320312 0.03125 -0.40625 C 0.0195312 -0.5 0.0234375 -0.578125 0.046875 -0.640625 C 0.078125 -0.703125 0.117188 -0.75 0.171875 -0.78125 C 0.222656 -0.8125 0.285156 -0.832031 0.359375 -0.84375 C 0.421875 -0.851562 0.476562 -0.847656 0.53125 -0.828125 C 0.59375 -0.804688 0.640625 -0.765625 0.671875 -0.703125 C 0.710938 -0.640625 0.738281 -0.5625 0.75 -0.46875 C 0.757812 -0.382812 0.75 -0.3125 0.71875 -0.25 C 0.695312 -0.1875 0.660156 -0.132812 0.609375 -0.09375 C 0.554688 -0.0625 0.5 -0.0390625 0.4375 -0.03125 Z M 0.421875 -0.125 C 0.503906 -0.132812 0.5625 -0.164062 0.59375 -0.21875 C 0.632812 -0.28125 0.648438 -0.363281 0.640625 -0.46875 C 0.628906 -0.582031 0.597656 -0.660156 0.546875 -0.703125 C 0.503906 -0.753906 0.441406 -0.773438 0.359375 -0.765625 C 0.179688 -0.742188 0.101562 -0.625 0.125 -0.40625 C 0.144531 -0.195312 0.242188 -0.101562 0.421875 -0.125 Z M 0.421875 -0.125 "/></g></g><g transform="translate(6.859283, 2.501587)"><g><path d="M 0.40625 -0.03125 C 0.3125 -0.0195312 0.234375 -0.0351562 0.171875 -0.078125 C 0.117188 -0.128906 0.0859375 -0.203125 0.078125 -0.296875 L 0.03125 -0.8125 L 0.125 -0.8125 L 0.171875 -0.296875 C 0.179688 -0.222656 0.203125 -0.171875 0.234375 -0.140625 C 0.273438 -0.117188 0.328125 -0.113281 0.390625 -0.125 C 0.523438 -0.132812 0.585938 -0.207031 0.578125 -0.34375 L 0.53125 -0.859375 L 0.625 -0.875 L 0.671875 -0.359375 C 0.679688 -0.265625 0.660156 -0.1875 0.609375 -0.125 C 0.566406 -0.0703125 0.5 -0.0390625 0.40625 -0.03125 Z M 0.40625 -0.03125 "/></g></g><g transform="translate(7.669072, 2.414117)"><g><path d="M 0.125 -0.015625 L 0.046875 -0.8125 L 0.328125 -0.84375 C 0.378906 -0.84375 0.421875 -0.832031 0.453125 -0.8125 C 0.492188 -0.800781 0.523438 -0.78125 0.546875 -0.75 C 0.578125 -0.726562 0.59375 -0.695312 0.59375 -0.65625 C 0.601562 -0.601562 0.59375 -0.554688 0.5625 -0.515625 C 0.539062 -0.484375 0.503906 -0.457031 0.453125 -0.4375 L 0.453125 -0.421875 C 0.484375 -0.421875 0.503906 -0.410156 0.515625 -0.390625 C 0.535156 -0.367188 0.554688 -0.335938 0.578125 -0.296875 L 0.671875 -0.078125 L 0.578125 -0.0625 L 0.46875 -0.28125 C 0.457031 -0.3125 0.445312 -0.332031 0.4375 -0.34375 C 0.425781 -0.363281 0.410156 -0.378906 0.390625 -0.390625 C 0.367188 -0.398438 0.347656 -0.398438 0.328125 -0.390625 L 0.1875 -0.390625 L 0.21875 -0.03125 Z M 0.359375 -0.484375 C 0.410156 -0.484375 0.445312 -0.492188 0.46875 -0.515625 C 0.488281 -0.546875 0.492188 -0.585938 0.484375 -0.640625 C 0.484375 -0.679688 0.46875 -0.710938 0.4375 -0.734375 C 0.414062 -0.753906 0.378906 -0.765625 0.328125 -0.765625 L 0.140625 -0.75 L 0.171875 -0.46875 Z M 0.359375 -0.484375 "/></g></g><g transform="translate(8.396647, 2.335527)"><g/></g><g transform="translate(8.666397, 2.30639)"><g><path d="M 0.5 -0.859375 L 0.5 -0.78125 L 0.140625 -0.75 L 0.171875 -0.453125 L 0.5 -0.484375 L 0.515625 -0.40625 L 0.1875 -0.375 L 0.21875 -0.03125 L 0.125 -0.015625 L 0.046875 -0.8125 Z M 0.5 -0.859375 "/></g></g><g transform="translate(9.289188, 2.239119)"><g><path d="M 0.71875 -0.078125 L 0.609375 -0.0625 L 0.515625 -0.28125 L 0.171875 -0.234375 L 0.125 -0.015625 L 0.03125 0 L 0.234375 -0.828125 L 0.359375 -0.84375 Z M 0.28125 -0.734375 L 0.203125 -0.328125 L 0.484375 -0.359375 L 0.296875 -0.75 Z M 0.28125 -0.734375 "/></g></g><g transform="translate(10.027509, 2.159368)"><g><path d="M 0.34375 -0.015625 C 0.289062 -0.015625 0.242188 -0.0195312 0.203125 -0.03125 C 0.171875 -0.0390625 0.140625 -0.0546875 0.109375 -0.078125 C 0.078125 -0.0976562 0.0507812 -0.117188 0.03125 -0.140625 L 0.09375 -0.21875 L 0.109375 -0.21875 C 0.148438 -0.132812 0.222656 -0.0976562 0.328125 -0.109375 C 0.390625 -0.117188 0.429688 -0.132812 0.453125 -0.15625 C 0.484375 -0.1875 0.492188 -0.226562 0.484375 -0.28125 C 0.484375 -0.300781 0.476562 -0.316406 0.46875 -0.328125 C 0.46875 -0.347656 0.453125 -0.363281 0.421875 -0.375 C 0.398438 -0.382812 0.375 -0.394531 0.34375 -0.40625 L 0.234375 -0.40625 C 0.160156 -0.414062 0.101562 -0.4375 0.0625 -0.46875 C 0.03125 -0.507812 0.015625 -0.554688 0.015625 -0.609375 C 0.00390625 -0.648438 0.0078125 -0.6875 0.03125 -0.71875 C 0.0507812 -0.75 0.078125 -0.773438 0.109375 -0.796875 C 0.148438 -0.816406 0.195312 -0.828125 0.25 -0.828125 C 0.3125 -0.835938 0.363281 -0.835938 0.40625 -0.828125 C 0.445312 -0.816406 0.476562 -0.796875 0.5 -0.765625 L 0.484375 -0.703125 L 0.46875 -0.703125 C 0.425781 -0.722656 0.390625 -0.738281 0.359375 -0.75 C 0.335938 -0.757812 0.300781 -0.757812 0.25 -0.75 C 0.195312 -0.75 0.15625 -0.734375 0.125 -0.703125 C 0.101562 -0.679688 0.0976562 -0.65625 0.109375 -0.625 C 0.109375 -0.582031 0.117188 -0.550781 0.140625 -0.53125 C 0.171875 -0.519531 0.207031 -0.507812 0.25 -0.5 L 0.359375 -0.484375 C 0.429688 -0.484375 0.488281 -0.460938 0.53125 -0.421875 C 0.570312 -0.390625 0.59375 -0.34375 0.59375 -0.28125 C 0.601562 -0.238281 0.597656 -0.195312 0.578125 -0.15625 C 0.566406 -0.125 0.539062 -0.09375 0.5 -0.0625 C 0.457031 -0.0390625 0.40625 -0.0234375 0.34375 -0.015625 Z M 0.34375 -0.015625 "/></g></g><g transform="translate(10.700811, 2.086641)"><g><path d="M 0.578125 -0.53125 L 0.546875 -0.859375 L 0.640625 -0.875 L 0.71875 -0.078125 L 0.625 -0.0625 L 0.578125 -0.453125 L 0.171875 -0.421875 L 0.21875 -0.03125 L 0.125 -0.015625 L 0.046875 -0.8125 L 0.140625 -0.828125 L 0.171875 -0.5 Z M 0.578125 -0.53125 "/></g></g><g transform="translate(11.531557, 1.996907)"><g><path d="M 0.21875 -0.03125 L 0.125 -0.015625 L 0.046875 -0.8125 L 0.140625 -0.828125 Z M 0.21875 -0.03125 "/></g></g><g transform="translate(11.862028, 1.961211)"><g><path d="M 0.4375 -0.03125 C 0.363281 -0.0195312 0.296875 -0.0234375 0.234375 -0.046875 C 0.179688 -0.078125 0.132812 -0.125 0.09375 -0.1875 C 0.0625 -0.25 0.0390625 -0.320312 0.03125 -0.40625 C 0.0195312 -0.5 0.0234375 -0.578125 0.046875 -0.640625 C 0.078125 -0.703125 0.117188 -0.75 0.171875 -0.78125 C 0.222656 -0.8125 0.285156 -0.832031 0.359375 -0.84375 C 0.421875 -0.851562 0.476562 -0.847656 0.53125 -0.828125 C 0.59375 -0.804688 0.640625 -0.765625 0.671875 -0.703125 C 0.710938 -0.640625 0.738281 -0.5625 0.75 -0.46875 C 0.757812 -0.382812 0.75 -0.3125 0.71875 -0.25 C 0.695312 -0.1875 0.660156 -0.132812 0.609375 -0.09375 C 0.554688 -0.0625 0.5 -0.0390625 0.4375 -0.03125 Z M 0.421875 -0.125 C 0.503906 -0.132812 0.5625 -0.164062 0.59375 -0.21875 C 0.632812 -0.28125 0.648438 -0.363281 0.640625 -0.46875 C 0.628906 -0.582031 0.597656 -0.660156 0.546875 -0.703125 C 0.503906 -0.753906 0.441406 -0.773438 0.359375 -0.765625 C 0.179688 -0.742188 0.101562 -0.625 0.125 -0.40625 C 0.144531 -0.195312 0.242188 -0.101562 0.421875 -0.125 Z M 0.421875 -0.125 "/></g></g><g transform="translate(12.72394, 1.868111)"><g><path d="M 0.203125 -0.015625 L 0.125 -0.015625 L 0.046875 -0.8125 L 0.15625 -0.828125 L 0.609375 -0.25 L 0.625 -0.25 L 0.5625 -0.859375 L 0.640625 -0.875 L 0.71875 -0.078125 L 0.625 -0.0625 L 0.15625 -0.671875 L 0.140625 -0.65625 Z M 0.203125 -0.015625 "/></g></g></g></g><g clip-path="url(#1bb75d1e6b)"><g fill="#863030" fill-opacity="1"><g transform="translate(13.561672, 1.777623)"><g/></g></g></g></g></g></svg>